<svg version="1.2" xmlns="http://www.w3.org/2000/svg" viewBox="0 0 751 500" width="751" height="500">

	<defs>
		<clipPath clipPathUnits="userSpaceOnUse" id="cp1">
			<path d="m751 500h-750v-500h750z"/>
		</clipPath>
	</defs>
	<style>
		.s0 { fill: #F9731630 } 
	</style>
	<g id="ARTBOARD 02">
		<g id="&lt;Clip Group&gt;" clip-path="url(#cp1)">
			<g id="&lt;Group&gt;">
				<g id="&lt;Group&gt;">
					<g id="&lt;Group&gt;">
						<g id="&lt;Group&gt;" style="opacity: .2">
							<path id="&lt;Path&gt;" class="s0" d="m-83.2 347.6c35.3-18.4 72.9-16.6 115.4-3.5 164 50.5 283.6 10.4 368.4-18 41-13.7 73.9-24.8 99.7-21.4 120 15.4 165.6-4.6 182.3-43.2 10.5-24.3 9.6-55.9 8.5-90.7-0.8-22.7-1.5-46.8 0.9-71 7.5-76.6 46.4-154.8 216.9-198l-0.3-0.4c-170.6 43.3-209.6 121.8-217.1 198.5-2.4 24.2-1.7 48.4-1 71.1 1.1 34.7 2.1 66.3-8.4 90.5-16.6 38.2-62 58-181.6 42.7-25.9-3.4-58.8 7.7-99.9 21.4-84.8 28.5-204.3 68.5-368.1 18-42.7-13.1-80.5-14.9-115.9 3.6z"/>
							<path id="&lt;Path&gt;" class="s0" d="m-83.1 347.7c35.2-20.6 73.6-19.6 118.7-4.4 165.3 52.5 289.2 10.5 375.8-18.9 38.7-13.1 70-23.7 94.2-22.2 116.5 11.9 160.1-9.6 176-48.3 9.6-23.6 9-53.6 8.2-86.3-0.4-21.9-1-45.1 1.6-68.4 8.2-74.8 47.9-151 220.9-192.5l-0.3-0.5c-173.2 41.7-212.9 118.1-221.1 193.1-2.6 23.3-2.1 46.5-1.6 68.5 0.7 32.6 1.4 62.5-8.2 86-15.7 38.5-59.1 59.8-175.4 47.9-24.2-1.5-55.6 9.1-94.3 22.2-86.6 29.4-210.3 71.4-375.5 18.9-45.3-15.3-83.9-16.2-119.2 4.6z"/>
							<path id="&lt;Path&gt;" class="s0" d="m-82.9 348c35-22.9 74.2-22.9 122-5.6 166.9 54.8 295.6 10.4 384-20.1 36-12.4 65.3-22.5 87.7-22.6 113.4 8.4 154.9-14.6 169.8-53.7 8.7-22.8 8.4-51 8-81.6-0.3-21.2-0.6-43.4 2.1-65.8 8.8-73 49.2-147.1 225.1-187.1l-0.3-0.4c-176 40.1-216.5 114.4-225.3 187.6-2.7 22.4-2.4 44.7-2.2 65.8 0.4 30.6 0.8 58.7-7.9 81.4-14.8 38.8-56.1 61.7-169.1 53.3-22.5 0.1-51.9 10.2-88 22.7-88.3 30.4-216.8 74.8-383.6 20.1-48-17.5-87.3-17.4-122.6 5.6z"/>
							<path id="&lt;Path&gt;" class="s0" d="m-82.6 348.4c34.8-25.3 74.6-26.3 125.1-6.8h0.1c169 57.2 303.2 9.9 393.1-21.8 32.9-11.6 59.9-21.1 80.4-22.6 110.3 4.9 149.7-19.9 163.6-59.4 7.7-21.9 7.7-48.3 7.6-76.7-0.1-20.3-0.2-41.6 2.6-63 9.3-71.3 50.5-143.4 229.3-181.8l-0.3-0.4c-179 38.5-220.2 110.8-229.5 182.3-2.8 21.4-2.7 42.7-2.7 63.1 0.1 28.3 0.2 54.7-7.5 76.5-13.8 39.2-53 63.8-162.9 58.9h-0.1c-20.6 1.5-47.6 11-80.5 22.6-89.8 31.7-224 79-392.9 21.8-50.7-19.6-90.7-18.6-125.7 6.9z"/>
							<path id="&lt;Path&gt;" class="s0" d="m-82.3 348.9c34.6-27.8 75-29.9 128.3-8.1 171.7 60 312.5 8.9 403.7-24.1 29.2-10.6 53.3-19.4 71.7-22 107.6 1.3 144.6-25.3 157.5-65.5 6.7-20.8 6.8-45.3 7-71.3 0.1-19.5 0.3-40 3.2-60.4 9.8-69.5 51.5-139.5 233.6-176.3l-0.3-0.4c-182.2 36.8-224 107-233.9 176.8-2.8 20.5-3 40.9-3.1 60.4-0.2 26-0.3 50.4-7 71.2-12.8 39.9-49.6 66.3-156.9 65-18.5 2.7-42.6 11.4-71.9 22-91.1 33-231.8 84-403.3 24.1-53.5-21.8-94.1-19.7-128.8 8.2z"/>
							<path id="&lt;Path&gt;" class="s0" d="m-81.9 349.5c34.3-30.3 75.3-33.6 131.4-9.5 175.1 63.1 323.7 7.3 415.6-27.2 24.9-9.4 45.6-17.1 61.5-20.6 105.3-2.3 139.9-31.1 151.6-72.1 5.6-19.6 5.9-41.9 6.3-65.5 0.3-18.7 0.7-38.2 3.6-57.7 10.3-67.8 52.6-135.7 238.1-170.8l-0.3-0.5c-185.6 35.3-228 103.3-238.3 171.4-3 19.5-3.3 39-3.6 57.7-0.4 23.6-0.8 45.9-6.3 65.4-11.7 40.7-46 69.3-150.9 71.6h-0.1c-16 3.5-36.7 11.3-61.6 20.6-91.9 34.5-240.4 90.3-415.3 27.2-56.3-24.1-97.5-20.8-131.9 9.6z"/>
							<path id="&lt;Path&gt;" class="s0" d="m-81.4 350.2c33.9-32.9 75.4-37.4 134.3-11.1 179.7 67 337.9 4.8 429.6-31.3 19.7-7.7 36.3-14.3 49.4-18.1 103.5-6.2 135.3-37.4 145.7-79.6 4.4-18 4.9-37.9 5.5-58.8 0.5-17.9 0.9-36.5 3.9-55 10.8-66.2 53.7-131.9 242.6-165.4l-0.3-0.4c-189.1 33.6-232 99.5-242.8 165.9-3 18.5-3.5 37.1-3.9 55.1-0.6 20.8-1.1 40.7-5.5 58.6-10.4 41.9-42 72.9-145.1 79.1h-0.1c-13.1 3.8-29.7 10.4-49.5 18.1-91.6 36.1-249.6 98.2-429.2 31.4-59.1-26.5-100.8-21.9-134.8 11.1z"/>
							<path id="&lt;Path&gt;" class="s0" d="m-80.8 351c33.4-35.5 75.4-41.4 137.2-12.7 186 71.5 356.4 0.4 446-37 13.5-5.7 25.2-10.6 34.8-14.1 102.5-10.3 131-44.6 139.9-88.4 3.2-15.9 3.8-33 4.5-50.8 0.6-17.1 1.3-34.8 4.3-52.4 11.1-64.6 54.5-128 247.2-159.8l-0.3-0.4c-192.8 31.8-236.3 95.5-247.4 160.3-3.1 17.6-3.7 35.3-4.3 52.5-0.7 17.7-1.3 34.8-4.5 50.7-8.8 43.5-37.2 77.5-139.3 87.8l-0.1 0.1c-9.7 3.5-21.4 8.4-34.9 14-89.5 37.4-259.7 108.5-445.6 37-62-28.8-104.2-22.8-137.7 12.8z"/>
							<path id="&lt;Path&gt;" class="s0" d="m-80.1 351.9c32.8-38.1 75.2-45.6 139.9-14.4 195.6 77.6 382.7-7.4 466-45.2 6.1-2.8 11.7-5.3 16.7-7.5 131.9-19.3 134.6-76.5 137.5-140 0.8-16.5 1.6-33.3 4.6-50 11.5-62.9 55.4-124.1 252-154.1l-0.3-0.4c-196.8 30.1-240.6 91.4-252.2 154.5-3 16.8-3.8 33.7-4.6 50.1-2.9 63.2-5.6 120.2-137 139.4h-0.1c-5 2.2-10.6 4.7-16.7 7.5-83.3 37.9-270.2 122.8-465.5 45.2h-0.1c-64.9-31.2-107.4-23.8-140.5 14.6z"/>
							<path id="&lt;Path&gt;" class="s0" d="m-79.4 353c32.3-41 75-49.9 142.7-16.3 102.9 42.2 206.2 37.9 292.6 18.4 86.4-19.5 156.1-54.2 191.8-72.8 124.2-24.3 127.3-80.3 130.7-140.8 0.9-15.7 1.8-31.8 4.9-47.6 11.8-61.4 56.1-120.1 256.8-148.3l-0.3-0.4c-200.9 28.3-245.2 87.2-257 148.7-3.1 15.9-4 32-4.9 47.7-3.4 60.3-6.5 116.1-130.2 140.2h-0.1c-35.7 18.6-105.3 53.3-191.6 72.8-86.4 19.5-189.5 23.8-292.4-18.4-67.8-33.7-110.8-24.7-143.2 16.4z"/>
							<path id="&lt;Path&gt;" class="s0" d="m-78.5 354.1q0.9-1.3 1.8-2.5c31.5-41.6 74.2-51.1 143.4-15.8h0.1c28.2 12 56.7 20.4 85 25.8 28.3 5.4 56.4 7.8 83.9 7.9 141.3 0.8 266.4-59.2 317.3-89.7 116.4-29 120-83.9 123.8-141.6 1-15.1 2-30.4 5-45.4 12.2-59.8 56.8-115.9 261.8-142.3l-0.3-0.4c-205.1 26.4-249.8 82.8-262 142.7-3 15.1-4 30.4-5 45.6-3.8 57.4-7.4 112.1-123.3 140.9h-0.1c-50.9 30.6-175.9 90.5-317.1 89.7-27.4-0.1-55.5-2.5-83.8-7.9-28.2-5.4-56.7-13.8-84.9-25.7-69.5-35.5-112.5-25.9-144.2 16q-0.9 1.1-1.7 2.3z"/>
							<path id="&lt;Path&gt;" class="s0" d="m-77.7 355.3q2.8-4.2 5.8-8c30.5-39.8 72.9-48.6 142.1-12.3 27.7 12.1 55.8 20.7 83.9 26.2 28.1 5.6 56.1 8.2 83.7 8.5 141.7 1.6 270.2-58.1 320.5-92.4 108.7-33.6 112.7-87.4 116.8-142.3 1.1-14.5 2.2-29.2 5.2-43.5 12.4-58.2 57.4-111.6 266.8-136l-0.3-0.5c-209.5 24.5-254.5 78.1-267 136.6-3 14.3-4.1 28.9-5.2 43.5-4.1 54.7-8.1 108.3-116.4 141.7l-0.1 0.1c-50.2 34.3-178.5 93.9-320.1 92.3-27.6-0.3-55.6-2.9-83.7-8.5-28-5.5-56.1-14-83.7-26.1l-0.1-0.1c-69.4-36.4-112.1-27.5-142.8 12.6q-2.9 3.7-5.6 7.9z"/>
							<path id="&lt;Path&gt;" class="s0" d="m-76.7 356.7q4.4-7.2 9.1-13.4c29.8-38.3 72-46.3 141.3-9.1 27.1 12.3 54.8 21 82.7 26.7 27.9 5.8 55.9 8.6 83.6 9 142 2.4 273.9-57 323.6-95.1 101-37.9 105.4-90.8 109.7-143 1.2-14.1 2.4-28.1 5.4-41.7 12.7-56.7 58-107.3 271.9-129.7l-0.3-0.5c-214 22.5-259.4 73.3-272.1 130.2-3.1 13.7-4.2 27.7-5.4 41.8-4.3 52-8.7 104.7-109.3 142.4l-0.1 0.1c-49.6 38.1-181.3 97.4-323.3 95-27.6-0.4-55.6-3.2-83.4-9-27.9-5.7-55.6-14.4-82.6-26.7h-0.1c-69.6-37.3-112-29.2-142 9.4q-4.7 6.1-9 13.2z"/>
							<path id="&lt;Path&gt;" class="s0" d="m-75.7 358.1c3.8-6.8 7.9-12.9 12.2-18.5 29.1-37.1 71.2-44.3 140.6-6.3v0.1l0.3 0.1c26.4 12.4 53.8 21.2 81.5 27.1 27.7 6 55.7 8.9 83.4 9.5 142.4 3.2 277.5-55.9 326.5-97.8 93.6-42 98.3-94 102.7-143.8 1.3-13.6 2.5-27.1 5.5-40.1 12.9-55.2 58.6-102.7 277.1-123.1l-0.3-0.4c-218.6 20.4-264.4 68.1-277.3 123.5-3 13.1-4.2 26.6-5.5 40.3-4.5 49.5-9.1 101.4-102.3 143.2h-0.1c-48.9 41.9-183.9 100.9-326.2 97.7-27.6-0.6-55.6-3.5-83.2-9.5-27.7-5.9-55-14.7-81.5-27.1l-0.2-0.1c-69.8-38.2-112.1-30.9-141.4 6.5-4.3 5.5-8.3 11.6-12.1 18.3z"/>
							<path id="&lt;Path&gt;" class="s0" d="m-74.6 359.7c4.6-8.8 9.5-16.7 14.9-23.6 28.5-36 70.6-42.6 140.3-3.6 25.9 12.6 52.9 21.7 80.4 27.8 27.5 6.1 55.4 9.3 83.2 10 142.8 4.1 281.4-54.8 329.9-100.5 86.1-45.8 91-97.1 95.6-144.4 1.3-13.4 2.5-26.4 5.6-38.9 13-53.8 59.1-98 282.4-116.2l-0.4-0.5c-223.3 18.3-269.4 62.7-282.5 116.7-3.1 12.6-4.3 25.6-5.6 39-4.6 47.2-9.5 98.2-95.3 143.9-48.4 45.7-186.8 104.5-329.5 100.5-27.8-0.8-55.7-4-83.1-10.1-27.5-6.1-54.5-15.2-80.3-27.7h-0.1c-69.9-39.2-112.2-32.5-141 3.8-5.4 6.8-10.3 14.6-14.8 23.4z"/>
							<path id="&lt;Path&gt;" class="s0" d="m-73.4 361.3c5.1-10.9 10.8-20.4 17.2-28.5 28.1-35.1 70.2-41 140.2-1.1h0.1c25.3 12.7 51.9 22 79.2 28.2 27.3 6.3 55.2 9.7 83 10.7 143.2 4.9 285.2-53.8 333.1-103.3 78.7-49.4 83.8-99.9 88.4-145.1 1.3-13.1 2.6-25.8 5.7-37.9 13.2-52.4 59.7-93.1 287.7-109.1l-0.3-0.4c-228 16-274.7 56.9-287.9 109.5-3.1 12.1-4.4 24.8-5.7 38-4.6 45.1-9.6 95.4-88.1 144.6l-0.1 0.1c-47.7 49.4-189.5 108-332.6 103.1-27.8-1-55.7-4.3-83-10.6-27.2-6.3-53.8-15.5-79.1-28.2v-0.1c-70.3-40-112.6-34-140.9 1.4-6.4 8-12.1 17.5-17.2 28.3z"/>
							<path id="&lt;Path&gt;" class="s0" d="m-72.2 363c5.6-12.9 12-24.1 19.4-33.3 27.7-34.3 69.9-39.7 140.3 1.2 24.7 12.8 51 22.2 78.1 28.7 27 6.5 54.9 10 82.8 11.2 143.7 5.7 289-52.7 336.3-106 71.5-52.6 76.7-102.5 81.2-145.7 1.4-13.1 2.6-25.6 5.7-37.3 13.4-51 60.5-87.9 293.1-101.6l-0.3-0.4c-232.7 13.6-279.9 50.8-293.3 102-3.1 11.8-4.4 24.3-5.7 37.4-4.5 43.1-9.6 92.8-81 145.2v0.1c-47.2 53.2-192.3 111.5-335.8 105.8-27.9-1.2-55.7-4.7-82.8-11.2-27-6.4-53.2-15.8-77.9-28.7h-0.1c-70.6-41-113-35.5-141-0.9-7.3 9.1-13.7 20.2-19.3 33.1z"/>
							<path id="&lt;Path&gt;" class="s0" d="m-70.9 364.9c6-15.1 13-28 21.3-38.2 27.4-33.7 69.7-38.4 140.5 3.3l0.1 0.1c24.1 13 50 22.5 76.9 29.2 26.8 6.7 54.7 10.4 82.7 11.7 144 6.5 292.7-51.6 339.4-108.7 64.5-55.5 69.7-104.9 74-146.2 1.3-13.2 2.6-25.6 5.7-37.1 13.5-49.6 61.4-82.6 298.6-93.8l-0.3-0.5c-237.3 11.3-285.2 44.5-298.8 94.3-3.1 11.5-4.4 24-5.8 37.2-4.3 41.2-9.4 90.5-73.7 145.8h-0.1c-46.5 57-195 115-338.9 108.5-27.9-1.3-55.7-5-82.6-11.7-26.8-6.6-52.7-16.2-76.8-29.2-71.1-42-113.7-37.1-141.3-3.1-8.3 10.1-15.2 23-21.2 37.9z"/>
							<path id="&lt;Path&gt;" class="s0" d="m-69.5 366.8c6.2-17.2 13.7-31.8 22.9-43 27.2-33.1 69.6-37.3 141 5.4q4.6 2.6 9.3 5c83.7 42.7 190 45.2 283.4 26.6 93.5-18.5 174.1-58 206.7-99.2q0.8-0.9 1.4-1.8c57.8-58.1 62.8-107 66.8-146.7 1.4-13.5 2.7-25.9 5.9-37.2 13.5-48.2 62.2-77 304-85.7l-0.4-0.5c-241.7 8.8-290.5 37.7-304.2 86.2-3.2 11.4-4.4 23.8-5.8 37.3-4 39.6-9 88.4-66.6 146.3q-0.7 0.9-1.5 1.9c-32.4 41-113 80.4-206.3 98.9-93.3 18.6-199.4 16.1-283.1-26.6q-4.7-2.4-9.2-4.9c-71.7-42.9-114.4-38.6-141.8-5.3-9.2 11.3-16.6 25.8-22.8 42.8z"/>
							<path id="&lt;Path&gt;" class="s0" d="m-68.1 368.8c6.4-19.4 14.3-35.6 24.4-47.8 26.9-32.6 69.6-36.3 141.6 7.4q13.1 7.6 27.1 13.8c81.1 35.7 182.2 36.5 271.4 18.1 89.2-18.4 166.5-56.1 199.8-97.4q2.3-2.8 4.3-5.6c51.2-60.3 55.9-108.9 59.6-147.1 1.4-13.9 2.6-26.5 5.9-37.7 13.6-46.9 63.3-71.1 309.4-77.3l-0.3-0.4c-246.1 6.1-295.9 30.5-309.6 77.7-3.3 11.3-4.6 23.8-5.9 37.8-3.7 38.2-8.4 86.7-59.5 146.7v0.1q-2 2.8-4.3 5.6c-33.2 41.2-110.3 78.8-199.4 97.1-89.1 18.4-190.1 17.6-271-18.1q-14-6.2-27.2-13.7c-72.2-43.9-115.1-40.1-142.3-7.3-10 12.2-17.9 28.4-24.3 47.6z"/>
							<path id="&lt;Path&gt;" class="s0" d="m-66.6 370.9c6.5-21.5 14.8-39.5 25.7-52.7 26.8-32.1 69.7-35.3 142.2 9.4 13.8 8.2 28.4 15.2 43.8 21.1 78.5 29.9 175 29.4 260.2 11.1 85.4-18.2 159.5-54.2 193.3-95.4q4-4.8 7.2-9.6c44.8-62.1 49.1-110.4 52.4-147.5 1.3-14.5 2.5-27.3 5.8-38.5 13.8-45.6 64.7-65.1 315-68.5l-0.3-0.5c-250.3 3.5-301.3 23-315.2 69-3.3 11.3-4.5 24.1-5.8 38.6-3.3 37-7.6 85.2-52.3 147.2q-3.2 4.8-7.1 9.6c-33.7 41-107.7 76.9-192.9 95.2-85.2 18.2-181.6 18.7-260-11.2-15.4-5.8-30-12.8-43.7-21.1-72.8-44.8-116-41.5-143-9.1-10.9 13.1-19.1 31-25.6 52.4z"/>
							<path id="&lt;Path&gt;" class="s0" d="m-64.6 373.7c6.5-23.9 15-43.8 26.8-57.8 26.4-31.5 69.3-34 142.1 11.4 18.2 11.3 38.2 20.3 59.4 27.3 76.2 25.1 168.5 23.4 250.3 5.4 81.8-18.1 153.2-52.8 187.5-93.7q5.7-6.9 10.1-13.9c38.9-63.7 42.6-111.9 45.5-148 1.2-15.3 2.2-28.4 5.6-39.6 13.7-44 66-58.2 320.3-58.9l-1.2-1.7c-254.2 0.8-306.8 15.5-320.7 60.6-3.6 11.4-4.6 24.6-5.8 39.9-2.8 36-6.5 83.9-45.2 147.2q-4.2 6.9-9.8 13.6c-34 40.5-104.8 74.8-186.2 92.8-81.5 18.1-173.5 19.7-249.5-5.3-21.1-7-41-15.9-59-27.2-73.8-46-117.5-43.1-144.6-10.7-11.7 14-20.3 33.5-26.8 56.9z"/>
						</g>
						<g id="&lt;Group&gt;">
							<path id="&lt;Path&gt;" class="s0" d="m805.1 242.4c-17.2 4.5-34.5 9.6-51.5 14.7-63.2 18.9-122.1 36.5-151.6 13.4-61.7-48.4-103.3-59.9-134.2-53.1-30.9 6.8-50.9 31.9-69.6 56.9-44.1 59-93.9 94.7-145.3 112.9-33.7 11.9-68.1 16.3-102 14.8-34-1.4-67.6-8.7-99.6-20.2-19.6-7.1-38.6-15.7-56.7-25.5l0.1 0.4c18 9.8 36.9 18.4 56.4 25.4 32.1 11.5 65.7 18.8 99.7 20.3 34.1 1.4 68.5-3 102.3-14.9 51.5-18.3 101.4-54 145.5-113.1 18.6-24.9 38.6-49.9 69.3-56.7 30.8-6.8 72.2 4.8 133.8 53 29.7 23.3 88.7 5.6 152-13.3 17-5 34.3-10.2 51.4-14.7z"/>
							<path id="&lt;Path&gt;" class="s0" d="m805.6 245.2c-14.1 3.9-28.4 8.2-42.5 12.5-62.2 19-121.6 37.1-153.6 14.3-88-64.6-130.8-64.6-165.6-39.7-14.5 10.5-27.6 25.3-42.1 41.5l-1.9 2.2c-37.7 46.8-77.3 78.4-117.5 98.1-39.5 19.5-79.6 27.3-119 26.7-39.4-0.6-78.1-9.6-114.8-24.1-19-7.4-37.4-16.3-55.2-26.2l0.1 0.4c17.6 9.9 36 18.7 54.9 26.1 36.8 14.5 75.5 23.6 115 24.2 39.5 0.6 79.6-7.3 119.3-26.8 40.2-19.8 79.8-51.4 117.6-98.3l1.9-2.1c14.4-16.3 27.5-31 42-41.4 34.6-24.8 77.3-24.8 165 39.6 32.1 22.9 91.7 4.8 154-14.2 14.1-4.3 28.4-8.6 42.5-12.5z"/>
							<path id="&lt;Path&gt;" class="s0" d="m806.2 248c-11.1 3.3-22.4 6.8-33.6 10.3-61.2 19-121.1 37.6-155.6 15.2-95.4-65.4-133.1-66.2-171.5-37-12 9.2-24.2 21.4-38.2 35.4q-2.8 2.8-5.7 5.7v0.1c-122.3 141.5-246.8 140.2-355.4 94-18.5-7.9-36.5-17.1-54-27.1l0.1 0.5c17.4 9.9 35.3 19 53.7 26.8 108.8 46.4 233.4 47.7 356-94.1q2.9-2.9 5.7-5.7c14-14 26.1-26.2 38.2-35.4 38.1-29 75.7-28.2 170.8 37 34.7 22.6 94.7 3.9 156.1-15.1 11.1-3.5 22.4-7 33.5-10.2z"/>
							<path id="&lt;Path&gt;" class="s0" d="m806.8 251c-8.1 2.5-16.3 5.2-24.6 7.8-60.1 19.1-120.5 38.3-157.7 16.2-105.3-67.4-135.3-68.5-181-31.5-9.7 7.9-20.1 17.4-32.1 28.4-2.5 2.3-5.1 4.7-8.1 7.4-132.8 144.1-252.7 136-359.1 87.2-18.1-8.3-35.9-17.8-53.2-27.9l0.1 0.5c17.2 10 34.8 19.5 52.8 27.7 106.6 48.9 226.8 57 359.8-87.3 2.5-2.3 5.3-4.9 8.1-7.4 11.9-11 22.3-20.5 32-28.4 45.5-36.8 75.4-35.6 180.4 31.5 37.4 22.2 97.9 3 158.2-16.1 8.2-2.6 16.4-5.2 24.5-7.7z"/>
							<path id="&lt;Path&gt;" class="s0" d="m807.4 254.1q-7.7 2.5-15.5 5.1c-59 19.2-119.9 39-159.9 17.3-130.9-78-138.6-71.4-218.1-3.1-2.7 2.4-5.5 4.8-8.8 7.6h-0.1c-143.4 146.6-258.3 131.5-362.6 80.4-17.8-8.8-35.4-18.6-52.6-28.8l0.1 0.5c17.1 10.1 34.5 19.9 52.2 28.5 104.5 51.3 219.7 66.4 363.3-80.4 2.8-2.4 5.9-5 8.9-7.6 79.2-68 86.9-74.6 217.4 3.1 40.2 21.9 101.3 2 160.4-17.2q7.7-2.6 15.4-5z"/>
							<path id="&lt;Path&gt;" class="s0" d="m808.1 257.3q-3.2 1.1-6.4 2.2c-57.7 19.3-119.2 39.9-162.2 18.5-2.7-1.5-6.7-3.8-10.7-6-62.1-34.4-93.1-51.6-119.9-51-26.8 0.5-49.3 18.8-94.3 55.3-2.7 2.3-5.5 4.5-7.8 6.4-154.2 149.1-263.8 126.8-366 73.4-17.6-9.1-35-19.2-52.3-29.5l0.1 0.5c17.2 10.2 34.5 20.2 51.9 29.3 102.4 53.5 212.2 75.9 366.6-73.5 3.1-2.5 5.5-4.4 7.8-6.3 44.9-36.5 67.4-54.8 94-55.3 26.7-0.5 57.6 16.6 119.6 51 3 1.6 6.1 3.3 10.7 5.9h0.1c43.1 21.6 104.7 1 162.6-18.4q3.1-1.1 6.3-2.1z"/>
							<path id="&lt;Compound Path&gt;" class="s0" d="m808.8 260.7c-55.6 19.2-116.4 39.6-161.8 18.8-16-8.3-30.1-15.7-42.5-22.3-44-23.4-67.7-36-89.9-35.5-26.1 0.5-49.8 19-101.5 59.1l-4.6 3.6c-189.4 174-298.3 109.2-413.4 40.8q-3.9-2.4-7.8-4.7l0.1 0.5q3.7 2.2 7.4 4.4c115.2 68.6 224.4 133.5 414-40.8l4.6-3.5c51.6-40.1 75.3-58.6 101.2-59.1 22-0.4 45.7 12.1 89.6 35.4 12.4 6.6 26.5 14.1 42.6 22.3 45.5 20.9 106.4 0.5 162-18.7z"/>
							<path id="&lt;Path&gt;" class="s0" d="m809.5 264.1c-51.8 18.4-109 36.2-155 16.9-25.4-12.1-45.5-22.7-62.2-31.4-78-41-78.3-41.2-182.1 36.5-192 168.1-291 108.5-398.8 43.5-8.4-5-16.8-10.1-25.3-15.1l0.1 0.5c8.4 4.9 16.6 9.9 24.9 14.9 108 65 207.2 124.8 399.4-43.6 103.5-77.5 103.9-77.3 181.6-36.5 16.6 8.8 36.7 19.4 62.2 31.5 46.2 19.4 103.4 1.5 155.2-16.9z"/>
							<path id="&lt;Path&gt;" class="s0" d="m810.2 267.6c-48.1 17.4-101.8 32.8-148.2 14.9-32.8-14.4-56.5-27.1-75.1-37-65.2-34.9-67.2-36-175 42.3-195.3 163.5-286.4 107.2-387.5 44.6-12.9-8-26-16.1-39.5-23.8l0.1 0.4c13.3 7.7 26.3 15.8 39.1 23.7 101.3 62.6 192.5 119.1 388.1-44.7 107.5-78.1 109.5-77 174.4-42.3 18.6 10 42.4 22.7 75.2 37.1 46.5 18 100.3 2.5 148.4-14.9z"/>
							<path id="&lt;Path&gt;" class="s0" d="m810.9 271.2c-44.6 16.2-95 29.3-141.4 12.8-38.8-15.7-64.6-30-84-40.8-56.1-31.2-59.6-33.1-171.9 46.3-199.2 159.8-283.7 105.5-378.6 44.6-16.6-10.6-33.5-21.5-51.3-31.4l0.1 0.5c17.7 9.8 34.5 20.6 50.9 31.2 95.1 61 179.8 115.4 379.2-44.7 112-79.2 115.5-77.3 171.3-46.2 19.5 10.8 45.2 25.1 84.1 40.8 46.6 16.5 97 3.4 141.7-12.8z"/>
							<g id="&lt;Group&gt;">
								<path id="&lt;Compound Path&gt;" class="s0" d="m811.6 274.8c-41.2 14.9-88.4 25.7-134.6 10.7-43.9-16.2-70.7-31.9-90.3-43.5-49.5-29-54.3-31.8-171.4 49.2-203.4 156.9-282.4 103.8-371.6 43.8-19.4-13-39.4-26.4-61.2-38.1l0.1 0.5c21.7 11.6 41.5 24.9 60.8 37.9 89.3 60 168.4 113.2 372.2-43.9 116.8-80.7 121.6-78 170.8-49.1 19.7 11.5 46.5 27.3 90.4 43.5 46.3 15.1 93.6 4.2 134.9-10.7z"/>
							</g>
							<g id="&lt;Group&gt;">
								<path id="&lt;Compound Path&gt;" class="s0" d="m812.4 278.5c-38.1 13.4-82.3 22.1-127.9 8.5-48.2-16.3-75.3-33.2-95-45.5-44.3-27.7-50.2-31.5-172.5 51.4-208.1 154.5-282.3 101.8-366.1 42.5-21.7-15.4-44.1-31.2-69.5-44.1l0.1 0.5c25.2 12.8 47.5 28.5 69 43.8 84 59.5 158.4 112.2 366.8-42.5 122-82.6 127.9-78.9 171.9-51.4 19.7 12.3 46.9 29.3 95.1 45.6h0.1c45.6 13.7 89.9 4.9 128.1-8.5z"/>
							</g>
							<path id="&lt;Path&gt;" class="s0" d="m813.1 282.1c-35.1 11.8-76.5 18.6-121.1 6.4-52-15.9-79-34.1-98.4-47.1-40.2-27.1-47.2-31.8-174.9 53.2-213 152.5-283.1 99.9-362 40.6-23.4-17.5-47.5-35.7-76.4-49.3l0.1 0.5c28.7 13.5 52.7 31.6 76 49.1 79.1 59.3 149.3 112.1 362.6-40.7 127.4-84.8 134.3-80.1 174.3-53.2 19.4 13 46.5 31.3 98.6 47.2 44.6 12.3 86.1 5.5 121.3-6.4z"/>
							<path id="&lt;Path&gt;" class="s0" d="m813.9 285.6c-32.5 10.2-71.1 15.3-114.3 4.4-55.4-15.2-82-34.6-101-48.4-37-27-44.8-32.7-178.2 54.6-218.1 151.1-284.5 98-358.8 38.5-24.7-19.7-50.2-40.1-82.4-54l0.1 0.5c32 13.8 57.4 34.1 82 53.8 74.4 59.5 140.9 112.7 359.4-38.5 133-87.2 140.8-81.5 177.6-54.7 19 13.8 45.7 33.2 101.1 48.5 43.3 10.9 82 5.9 114.5-4.3z"/>
							<path id="&lt;Path&gt;" class="s0" d="m814.5 289.1c-29.9 8.5-65.9 12-107.4 2.4-58.4-14.4-84.4-34.9-102.9-49.6-34.3-27.1-42.9-33.9-182 56-223.6 149.8-286.7 95.9-356.6 36.1-25.5-21.9-52-44.5-87.4-58.3l0.1 0.4c35.2 13.9 61.5 36.4 86.9 58.1 70.1 59.9 133.3 114 357.2-36 138.9-89.7 147.4-83 181.5-56 18.5 14.6 44.6 35.2 103 49.6 41.6 9.6 77.7 6.1 107.7-2.4z"/>
							<path id="&lt;Path&gt;" class="s0" d="m815.2 292.2c-27.7 6.9-61.2 9.1-100.6 0.8-61.1-13.3-86.3-35-104.3-50.5-32-27.5-41.3-35.5-186.4 57.1-229.2 148.9-289.2 93.8-355 33.4-26.1-24-53-48.7-91.7-62.1l0.1 0.5c38.4 13.3 65.3 38 91.2 61.8 66 60.6 126.1 115.8 355.6-33.3h0.1c144.8-92.4 154-84.5 185.8-57.2 18 15.5 43.3 37.3 104.4 50.6 39.5 8.3 73.1 6.1 100.9-0.7z"/>
							<path id="&lt;Path&gt;" class="s0" d="m815.7 294.8c-25.5 5.3-56.5 6.4-93.5-0.7-63.3-12.1-87.6-34.8-105-51.2-30.3-28.3-40.2-37.6-192 58.1-234.5 147.9-291.4 91.6-353.2 30.5-26.4-26.1-53.7-53.1-95.8-65.6l0.3 1.4c41.3 12.6 68.2 39.1 94.2 64.9 62.3 61.6 119.7 118.3 355.5-30.4 150.6-94.9 160.2-85.9 189.8-58.2 17.5 16.5 42 39.4 105.8 51.6 37.2 7.1 68.5 6 94.1 0.7z"/>
						</g>
						<g id="&lt;Group&gt;" style="opacity: .4">
							<path id="&lt;Path&gt;" class="s0" d="m-346.7 205.8q1.6-0.8 3.1-1.5c51-23.2 93.7-13.8 134.3 46 17.9 22.3 38.1 41.4 59.8 57.9 21.7 16.5 44.9 30.4 68.8 41.9 123.2 59.5 266.5 59.3 328.3 53.7 118.1 23.2 152.3-23.3 188.2-72.2 9.4-12.8 18.9-25.7 30.1-37.6 44.4-47.2 115.1-77.7 309.2-15.4v-0.5c-194.2-62.3-265.1-31.7-309.7 15.7-11.2 11.9-20.7 24.9-30.1 37.7-35.8 48.7-69.8 95-187.5 71.9h-0.1c-61.7 5.5-204.9 5.8-327.9-53.6-24-11.6-47.1-25.4-68.8-41.9-21.7-16.5-41.8-35.6-59.8-57.8-40.7-60.1-83.7-69.6-135.1-46.1q-1.4 0.6-2.8 1.3z"/>
							<path id="&lt;Path&gt;" class="s0" d="m-346.6 207.2q4.8-2.5 9.5-4.6c49.2-22.2 91.3-12.1 131.3 48.4v0.1c17.3 22.1 37.1 41.2 58.5 57.8 21.4 16.6 44.5 30.6 68.4 42.3 123 60.4 269.1 61.7 332.5 52.7 114 15.9 147.9-29.5 182.5-75.8 9.2-12.3 18.4-24.6 29.2-35.8 43.7-45.8 113.2-73.8 310.1-7.9v-0.5c-197-65.9-266.7-37.7-310.6 8.2-10.8 11.3-20 23.6-29.2 35.9-34.4 46.1-68.3 91.3-181.8 75.4h-0.1c-63.3 9.1-209.2 7.8-332.2-52.6-23.9-11.7-46.9-25.7-68.3-42.2-21.4-16.6-41.1-35.7-58.5-57.8-40.2-60.8-82.5-70.9-132-48.6q-4.6 2.1-9.3 4.6z"/>
							<path id="&lt;Path&gt;" class="s0" d="m-346.5 208.8q7.8-4.5 15.5-7.9c47.7-21.1 89.1-10.5 128.7 50.8v0.1c16.7 22 36.1 41.2 57.2 57.8 21.1 16.6 44.1 30.8 68 42.7 122.8 61.3 271.7 64.2 336.7 51.6 109.8 8.9 143.5-35.5 176.8-79.4 9-11.8 17.9-23.5 28.3-34.2 43.1-44.3 111.3-69.6 311-0.1v-0.6c-199.9-69.4-268.2-43.9-311.5 0.5-10.4 10.7-19.3 22.5-28.3 34.3-33.2 43.7-66.8 88-176.1 79h-0.1c-64.9 12.7-213.6 9.7-336.4-51.5-23.9-11.9-46.8-26-67.9-42.6-21.1-16.6-40.4-35.8-57.1-57.8h-0.1c-39.7-61.6-81.4-72.2-129.4-50.9q-7.6 3.4-15.4 7.7z"/>
							<path id="&lt;Path&gt;" class="s0" d="m-346.5 210.5q10.8-6.6 21.1-11.1c46.4-20.3 87.4-9.2 126.5 53.1h0.1l0.1 0.2c16.2 21.8 35.1 41 55.9 57.7 20.9 16.7 43.7 31 67.6 43 122.7 62.1 274.2 66.7 340.8 50.5 105.5 2.2 139-41.3 171.1-82.9 8.8-11.4 17.4-22.7 27.4-32.9 42.5-42.9 109.3-65.4 311.9 7.9v-0.6c-202.7-73.2-269.7-50.5-312.3-7.4-10.1 10.1-18.8 21.4-27.5 32.9-32 41.4-65.3 84.8-170.4 82.6h-0.2c-66.4 16.2-217.8 11.6-340.4-50.4-23.9-12.1-46.6-26.3-67.5-43-20.8-16.7-39.7-35.8-55.8-57.7l-0.2-0.2c-39.3-62.5-80.5-73.6-127.3-53.2-6.8 3-13.8 6.7-20.9 11z"/>
							<path id="&lt;Path&gt;" class="s0" d="m-346.4 212.3c9-5.8 17.7-10.7 26.3-14.4 45.3-19.6 85.8-7.8 124.7 55.3h0.1c15.5 21.8 34 41 54.6 57.7 20.6 16.8 43.2 31.2 67 43.5 122.7 63.1 277.1 69.3 345.4 49.5 101.1-4.2 134.4-47 165.2-86.5 8.6-11.1 17.1-22 26.8-31.7 41.8-41.5 107.1-61 312.6 16.1v-0.6c-205.6-77-271.1-57.4-313.1-15.7-9.7 9.8-18.2 20.7-26.9 31.8-30.6 39.4-63.8 82-164.6 86.2h-0.1c-68.1 19.8-222.3 13.5-344.8-49.5-23.8-12.2-46.5-26.6-67-43.4-20.6-16.7-39-35.9-54.6-57.6v-0.1c-39.1-63.3-79.8-75.1-125.5-55.3-8.5 3.7-17.2 8.5-26.1 14.2z"/>
							<path id="&lt;Path&gt;" class="s0" d="m-346.3 214.2c10.7-7.4 21-13.3 31.2-17.7 44.4-19 84.6-6.7 123.2 57.4 15 21.7 33.1 40.8 53.4 57.7 20.3 16.9 42.8 31.4 66.6 43.9 122.5 63.9 279.8 71.8 349.6 48.4 96.8-10.4 129.8-52.4 159.3-90 8.6-11 16.9-21.5 26.4-30.8 41.1-40.3 104.8-56.5 313.2 24.5v-0.6c-208.5-80.9-272.4-64.6-313.7-24.1-9.5 9.3-17.8 19.9-26.4 30.9-29.5 37.4-62.4 79.4-158.8 89.7h-0.1c-69.7 23.3-226.7 15.5-349.1-48.4-23.8-12.4-46.3-27-66.5-43.8-20.3-16.9-38.4-36-53.3-57.6v-0.1c-38.8-64.3-79.3-76.6-124-57.4-10.1 4.3-20.4 10.2-31 17.5z"/>
							<path id="&lt;Path&gt;" class="s0" d="m-346.2 216.2c12.3-9 24.2-16.1 35.8-21 43.6-18.5 83.5-5.6 122 59.4 14.4 21.6 32 40.7 52.1 57.7 20 16.9 42.3 31.6 66.1 44.2 122.4 64.9 282.5 74.3 353.9 47.4 92.3-16.2 125.1-57.6 153.4-93.5 8.6-10.9 16.7-21.3 26.1-30.3 40.4-39 102.6-51.7 313.7 33.3l-0.1-0.5c-211.1-85-273.4-72.1-314.1-33-9.3 9-17.5 19.4-26.2 30.4-28.2 35.7-60.8 77.1-152.8 93.2h-0.1c-71.3 26.9-231.1 17.4-353.3-47.3-23.8-12.6-46.2-27.3-66.1-44.2-20-17-37.7-36.1-52-57.6-38.7-65.3-78.8-78.2-122.8-59.6-11.6 4.9-23.4 12-35.6 20.9z"/>
							<path id="&lt;Path&gt;" class="s0" d="m-346.1 218.4c13.8-10.7 27.1-19.1 40.2-24.6 43-18 82.7-4.5 121 61.5v0.1c13.8 21.4 31 40.5 50.7 57.6 19.8 17 42 31.8 65.8 44.6 122.2 65.7 285.1 76.8 358.2 46.3 87.8-21.6 120.2-62.6 147.3-97 8.7-11 16.8-21.3 26-30 39.8-37.7 100.3-46.7 314.1 42.4l-0.1-0.6c-213.8-89-274.4-79.9-314.5-42-9.2 8.8-17.3 19.1-26 30.1-27.1 34.2-59.4 75.2-146.9 96.7h-0.1c-72.9 30.5-235.5 19.4-357.6-46.3-23.7-12.7-45.9-27.6-65.6-44.6-19.8-16.9-37-36.1-50.7-57.5-38.5-66.3-78.5-79.8-121.8-61.6-13 5.4-26.3 13.8-40 24.4z"/>
							<path id="&lt;Path&gt;" class="s0" d="m-346 220.6c15.2-12.4 30-22 44.4-28 42.4-17.6 81.9-3.6 120.2 63.4v0.1q2.6 4.1 5.3 8.1c49.1 72.3 140.6 118.7 232.8 141.4 92.2 22.7 185.1 21.8 236.8-0.7q1.2-0.5 2.3-1c83.3-26.7 115.3-67.4 141.3-100.4 8.8-11.2 16.9-21.5 26.1-30.1 39.1-36.5 97.9-41.4 314.2 51.7v-0.5c-216.3-93.1-275.3-88.1-314.7-51.4-9.2 8.6-17.3 18.9-26.1 30.2-25.9 32.9-57.9 73.5-141 100.2q-1.1 0.5-2.3 1c-51.6 22.4-144.3 23.3-236.3 0.6-92.1-22.7-183.5-69-232.5-141.2q-2.8-4.1-5.3-8.2c-38.5-67.3-78.2-81.4-121-63.6-14.4 6-29.1 15.6-44.2 27.9z"/>
							<path id="&lt;Path&gt;" class="s0" d="m-345.8 223c16.5-14.3 32.6-25.2 48.3-31.7 42-17.2 81.4-2.7 119.6 65.5q7.2 12.1 16 23.3c50.6 65 138.6 107.9 227 128.9 88.4 21.1 177.3 20.4 229.7-1.9q3.6-1.5 7-3.2c78.8-31.3 110.4-71.8 135.3-103.8 9-11.6 17.2-22 26.4-30.5 38.4-35.3 95.6-35.8 314.2 61.4v-0.6c-218.7-97.1-276-96.5-314.7-61-9.2 8.5-17.4 19-26.5 30.6-24.8 31.9-56.3 72.3-134.9 103.6q-3.4 1.6-7 3.2c-52.2 22.1-140.9 22.9-229.2 1.8-88.3-21-176.2-63.8-226.8-128.7q-8.7-11.3-15.9-23.4c-38.4-68.4-78.1-83-120.4-65.5-15.7 6.4-31.7 17.3-48.2 31.4z"/>
							<path id="&lt;Path&gt;" class="s0" d="m-345.7 225.5c17.8-16.2 35.2-28.5 52.2-35.4 41.5-17 80.9-1.9 119.1 67.4 7.3 12.9 16.2 25.2 26.3 36.7 51.8 58.8 136.4 98.6 221.3 118.1 84.9 19.6 170.1 19 222.9-2.9q6.2-2.5 11.7-5.5c74.3-35.6 105.4-76 129.2-107 9.4-12.2 17.6-22.9 26.9-31.3 37.8-34.2 93.3-30 314.1 71.3v-0.6c-220.8-101.2-276.5-105.3-314.6-70.9-9.3 8.4-17.5 19.2-26.9 31.3-23.8 31-54.8 71.4-128.9 106.9q-5.6 2.9-11.7 5.5c-52.6 21.8-137.6 22.4-222.4 2.8-84.8-19.5-169.4-59.2-221.1-118-10.1-11.5-18.9-23.7-26.3-36.6-38.3-69.6-77.9-84.7-119.8-67.6-17 7-34.3 19.2-52.1 35.2z"/>
							<path id="&lt;Path&gt;" class="s0" d="m-345.6 228.7c19.2-18.2 37.9-32 56.2-39.4 40.8-16.5 79.7-0.9 117.8 69.2 9.5 17.4 21.8 33.6 36.4 48.6 52.6 53.7 134.2 90.7 215.9 108.9 81.8 18.3 163.8 17.8 216.9-3.8q8.9-3.5 16.6-7.9c70.1-39.5 100.6-80.1 123.5-110.5 9.6-12.9 18-23.9 27.3-32.2 36.7-32.8 90.6-23.5 313.3 81.8v-1.9c-222.8-105.2-277.1-114.2-314.8-80.6-9.5 8.4-17.8 19.5-27.6 32.5-22.7 30.3-53.1 70.6-122.7 109.9q-7.6 4.2-16.2 7.7c-52.6 21.3-134 21.8-215.3 3.7-81.5-18.2-162.8-55.1-215.1-108.6-14.5-14.9-26.9-31-36.3-48.4-38.5-70.9-78.4-86.6-120.4-69.6-18.1 7.4-36.6 20.9-55.6 38.6z"/>
						</g>
					</g>
				</g>
				<g id="&lt;Group&gt;">
					<g id="&lt;Group&gt;">
						<g id="&lt;Group&gt;" style="opacity: .2">
							<path id="&lt;Path&gt;" class="s0" d="m782 283.2c-38.4-12.9-75.1-5.6-114.4 13.6-151.4 74-277.2 52.2-366.5 36.7-43.2-7.5-77.7-13.5-102.5-6.4-115.1 32.9-164 20-188.2-15.6-15.3-22.3-20.6-53.6-26.5-88.1-3.9-22.5-8-46.3-15.2-69.8-22.7-74.3-76.8-145.7-253.3-163l0.2-0.4c176.7 17.4 230.8 88.9 253.7 163.4 7.2 23.6 11.3 47.4 15.1 69.9 5.9 34.4 11.3 65.6 26.4 87.9 24 35.2 72.8 48 187.5 15.2 24.9-7.1 59.5-1 102.7 6.5 89.2 15.4 215 37.2 366.3-36.7 39.4-19.3 76.3-26.6 114.9-13.6z"/>
							<path id="&lt;Path&gt;" class="s0" d="m781.9 283.4c-38.8-15.1-76.4-8.5-117.8 13.1-152.3 76.2-282.7 53.1-374 36.9-40.7-7.2-73.7-13-97.2-8-112.4 29-159.7 14.3-183.1-21.6-14.2-21.8-19.5-51.4-25.4-83.7-3.9-21.7-8-44.6-15.2-67.2-23-72.4-77.4-141.6-256.2-157l0.2-0.5c179 15.5 233.4 84.9 256.5 157.5 7.2 22.6 11.4 45.6 15.3 67.3 5.8 32.2 11.2 61.8 25.3 83.5 23.2 35.6 70.2 50.1 182.3 21.3 23.7-5.1 56.6 0.7 97.5 8 91.1 16.1 221.4 39.2 373.6-36.9 41.6-21.7 79.4-28.3 118.4-13.1z"/>
							<path id="&lt;Path&gt;" class="s0" d="m781.8 283.7c-39.1-17.4-77.6-11.6-121.3 12.5-153.5 78.6-289.1 53.9-382.3 36.9-37.9-6.9-68.9-12.6-91-9.3-109.9 25-155.4 8.4-178-27.9-13.1-21.2-18.4-49-24.2-79.2-3.9-20.9-8.1-42.8-15.2-64.5-23.3-70.6-78-137.7-259.3-151.1l0.3-0.4c181.4 13.5 236.2 80.8 259.5 151.6 7.1 21.6 11.3 43.6 15.3 64.5 5.7 30.1 11 57.9 24.1 79 22.4 36 67.7 52.5 177.3 27.5 22.2-3.2 53.1 2.4 91.2 9.3 93 17 228.6 41.7 381.9-36.8 43.8-24.3 82.5-30.1 121.9-12.5z"/>
							<path id="&lt;Path&gt;" class="s0" d="m781.6 284.1c-39.4-19.8-78.8-14.9-124.7 11.8-155 81.3-296.8 54.5-391.7 36.6-34.7-6.6-63.1-12-83.6-10.4-107.8 21.1-151.5 2.5-173.1-34.4-12-20.4-17.2-46.4-22.8-74.4-4-20-8.2-41-15.3-61.7-23.4-68.8-78.4-133.8-262.3-145.2l0.2-0.4c184.1 11.4 239.1 76.6 262.6 145.6 7.1 20.7 11.3 41.7 15.3 61.8 5.6 27.9 10.8 53.9 22.8 74.2 21.5 36.6 64.9 55.1 172.3 34 20.6-1.5 49.1 3.8 83.9 10.4 94.8 17.9 236.5 44.7 391.3-36.5 46.1-26.8 85.7-31.7 125.3-11.8z"/>
							<path id="&lt;Path&gt;" class="s0" d="m781.4 284.6c-39.6-22.2-79.9-18.3-128 11-157.1 84.4-306.1 55-402.5 35.9-30.9-6.2-56.4-11.2-75-11.1-105.8 17.2-147.6-3.6-168.3-41.2-10.8-19.6-15.9-43.7-21.3-69.3-4-19.2-8.2-39.3-15.2-59-23.6-67-78.7-129.8-265.4-139.2l0.2-0.4c186.9 9.4 242.1 72.4 265.8 139.6 6.9 19.8 11.1 39.9 15.2 59.1 5.4 25.6 10.4 49.6 21.1 69.1 20.6 37.3 62.2 58 167.6 40.8h0.1c18.7-0.1 44.2 5 75.1 11.1 96.4 19.1 245.2 48.5 402.2-35.8 48.3-29.4 88.7-33.3 128.5-11z"/>
							<path id="&lt;Path&gt;" class="s0" d="m781.1 285.3c-39.8-24.8-80.9-22-131.3 10-159.9 88.1-317.5 55-414.9 34.6-26.4-5.5-48.3-10.1-64.7-11.2-104.2 13.3-144-10-163.8-48.7-9.4-18.4-14.2-40.4-19.3-63.5-4.1-18.4-8.3-37.6-15.1-56.3-23.8-65.3-79.1-126-268.8-133.2l0.3-0.4c189.8 7.3 245.2 68.1 269 133.6 6.8 18.8 11.1 37.9 15.1 56.3 5.1 23.2 9.9 45.1 19.3 63.5 19.6 38.4 59.2 61.4 163.1 48.3 16.5 1 38.4 5.6 64.8 11.1 97.4 20.5 254.9 53.5 414.6-34.5 50.6-32.1 91.8-34.9 131.8-10z"/>
							<path id="&lt;Path&gt;" class="s0" d="m780.7 286c-39.9-27.3-81.7-25.7-134.5 9-163.6 92.5-331.9 54.5-429.4 32.6-21-4.8-38.7-8.7-52.3-10.5-103.2 9.1-140.8-17-159.5-57-7.9-17-12.5-36.6-17.2-57.1-4-17.5-8.2-35.8-14.9-53.6-23.8-63.6-79.2-122-272.1-127.1l0.2-0.4c193 5.1 248.5 63.7 272.4 127.5 6.7 17.9 10.9 36.1 15 53.7 4.7 20.4 9.2 40 17.1 57 18.6 39.7 56 65.6 158.8 56.5h0.1c13.6 1.8 31.4 5.8 52.3 10.5 97.5 22 265.6 59.9 429.1-32.5 53-34.8 95-36.4 135.1-8.9z"/>
							<path id="&lt;Path&gt;" class="s0" d="m780.3 286.9c-40-30-82.5-29.6-137.6 7.8h-0.1c-168.9 97.9-351 53-446.7 29.4-14.5-3.6-27-6.7-37.1-8.7-103.1 4.9-138-24.6-155.5-66.4-6.4-15.2-10.5-32-14.7-49.4-4-16.8-8.2-34.1-14.7-51-23.9-62-79.4-118.1-275.6-120.9l0.3-0.5c196.3 2.9 251.8 59.2 275.8 121.3 6.5 17 10.7 34.3 14.8 51.1 4.2 17.4 8.2 34.2 14.6 49.3 17.4 41.6 52.1 70.9 154.8 66h0.1c10.2 2.1 22.7 5.1 37.2 8.7 95.6 23.6 277.5 68.5 446.3-29.3h0.1c55.2-37.6 98-37.9 138.2-7.7z"/>
							<path id="&lt;Path&gt;" class="s0" d="m779.8 288c-40-32.8-83.2-33.9-140.7 6.4-177.1 105.4-378.4 49.3-468.1 24.3-6.6-1.9-12.6-3.6-17.9-5-133.9 0.5-148-55.4-163.6-117.6-4-16-8.2-32.5-14.5-48.5-24-60.3-79.4-114.1-279.1-114.6l0.2-0.5c199.9 0.6 255.4 54.6 279.4 115.1 6.4 16 10.5 32.5 14.6 48.6 15.5 61.9 29.5 117.6 162.9 117v0.1c5.4 1.4 11.4 3.1 18 4.9 89.6 25 290.7 81.1 467.7-24.2 57.7-40.4 101.1-39.3 141.3-6.4z"/>
							<path id="&lt;Path&gt;" class="s0" d="m779.3 289.1c-40-35.6-83.9-38.1-143.8 5-92.9 56.8-195.5 67.8-284.6 61.3-89-6.4-164.5-30.3-203.5-43.4-127.2-5.5-141.5-60.2-157-119.3-4-15.4-8.1-31.1-14.3-46.2-23.9-58.7-79.3-110-282.7-108.1l0.3-0.5c203.5-1.8 258.9 49.7 282.9 108.5 6.2 15.2 10.3 30.9 14.4 46.3 15.4 58.9 29.6 113.4 156.3 118.9h0.1c38.9 13 114.4 36.9 203.4 43.4 89 6.4 191.4-4.6 284.3-61.3 60.1-43.2 104.2-40.7 144.4-5z"/>
							<path id="&lt;Path&gt;" class="s0" d="m778.7 290.3q-1.1-1.1-2.3-2.2c-39.3-36.3-83.3-39.4-144.5 5.7-25.4 16-51.8 28.4-78.6 37.9-26.8 9.5-53.9 16-81 20.2-139.1 21.6-274.3-18.9-330.6-41.5-120.5-11.4-135-64.9-150.3-121.2-4-14.7-8.1-29.6-14.1-44-23.9-57.1-79.1-105.8-286.3-101.5l0.2-0.5c207.3-4.2 262.6 44.7 286.6 102 6.1 14.4 10.1 29.3 14.1 44.1 15.3 56 29.7 109.3 149.7 120.6h0.1c56.2 22.6 191.4 63.1 330.3 41.6 27.1-4.2 54.2-10.8 81-20.3 26.8-9.4 53.1-21.9 78.5-37.8 61.4-45.3 105.7-42.1 145.2-5.6q1.1 1.1 2.2 2.1z"/>
							<path id="&lt;Path&gt;" class="s0" d="m778.1 291.7q-3.6-3.8-7.2-7.1c-38.1-34.7-81.6-37.1-142.5 8.9h-0.1c-24.8 16-50.8 28.6-77.3 38.2-26.6 9.6-53.7 16.4-80.8 20.7-139.2 22.5-277.8-17.3-334.2-43.7-113.8-17-128.5-69.5-143.6-122.9-4-14.2-8-28.4-13.8-42.1-23.9-55.5-78.9-101.5-290.1-94.6l0.2-0.5c211.3-6.8 266.4 39.4 290.4 95.1 5.9 13.7 9.9 27.9 13.9 42.1 14.9 53.3 29.6 105.5 143 122.4l0.1 0.1c56.3 26.3 194.7 66.1 333.9 43.7 27-4.4 54.1-11.1 80.7-20.7 26.5-9.7 52.4-22.2 77.2-38.2h0.1c61.1-46.2 104.9-43.8 143.2-8.8q3.6 3.3 7.1 7z"/>
							<path id="&lt;Path&gt;" class="s0" d="m777.4 293.2q-5.7-6.5-11.6-11.9c-37-33.4-80.2-35-141 11.9h-0.1c-24.2 16.1-49.8 28.8-76.1 38.5-26.3 9.8-53.3 16.7-80.5 21.3-139.4 23.3-281.2-15.8-337.8-46-107.2-22.4-122.1-73.9-136.8-124.7-4-13.6-7.9-27.3-13.6-40.2-23.9-54-78.6-97.2-293.9-87.6l0.3-0.5c215.3-9.5 270.2 33.8 294.1 88 5.7 13 9.7 26.7 13.6 40.4 14.7 50.6 29.6 101.9 136.3 124.2h0.1c56.5 30.2 198.1 69.2 337.5 45.9 27.1-4.5 54.1-11.4 80.4-21.2 26.3-9.8 51.8-22.4 76-38.5h0.1c61-47.1 104.4-45.4 141.7-11.7q5.9 5.3 11.5 11.6z"/>
							<path id="&lt;Path&gt;" class="s0" d="m776.7 294.7q-7.6-9.2-15.7-16.4c-36.1-32.3-79-33.2-139.8 14.6l-0.2 0.1c-23.6 16.1-48.8 28.9-74.9 38.8-26 9.9-53 17-80.2 21.7-139.6 24.2-284.6-14.1-341.3-48.2-100.5-27.5-115.6-78.1-130-126.4-3.9-13.3-7.8-26.4-13.4-38.7-23.7-52.5-78.3-92.6-297.6-80.4l0.2-0.4c219.4-12.2 274.1 28 297.9 80.7 5.6 12.4 9.5 25.6 13.5 38.8 14.3 48.2 29.3 98.6 129.4 126h0.1c56.7 34 201.4 72.3 341 48.1 27.1-4.6 54-11.7 80.1-21.6 26-9.9 51.2-22.7 74.8-38.8l0.2-0.1c61-48 104.2-47 140.6-14.5 5.3 4.8 10.5 10.2 15.5 16.3z"/>
							<path id="&lt;Path&gt;" class="s0" d="m775.9 296.4c-6.2-8-12.6-15.1-19.3-21-35.4-31.3-78.1-31.5-138.9 17.2h-0.1c-23 16.2-47.8 29.1-73.6 39.2-25.9 10.1-52.7 17.3-80 22.2-139.9 25.1-288.2-12.5-345.1-50.4-94-32.4-109.1-82.1-123.1-128.1-3.9-13-7.8-25.6-13.3-37.5-23.6-51-77.9-87.8-301.4-72.8l0.2-0.4c223.6-15 278 21.9 301.7 73.2 5.5 11.9 9.4 24.6 13.3 37.5 14 45.9 29.1 95.4 122.7 127.7l0.1 0.1c56.8 37.8 204.9 75.3 344.7 50.2 27.2-4.9 54-12.1 79.8-22.2 25.9-10 50.6-22.9 73.6-39.1 61.1-48.9 104.1-48.6 139.7-17 6.7 5.8 13.1 12.8 19.2 20.8z"/>
							<path id="&lt;Path&gt;" class="s0" d="m775.1 298.2c-7.2-10-14.7-18.5-22.7-25.5-34.7-30.5-77.3-30.1-138.3 19.6-22.4 16.2-46.8 29.3-72.4 39.5-25.6 10.2-52.4 17.7-79.7 22.7-140.1 26-291.7-10.8-348.8-52.5-87.5-37-102.6-86.1-116.2-129.9-3.9-12.7-7.7-25.1-13.1-36.5-23.5-49.6-77.6-82.9-305.3-64.9l0.2-0.5c227.8-17.9 282 15.5 305.6 65.3 5.4 11.5 9.2 23.9 13.2 36.6 13.5 43.7 28.6 92.6 115.7 129.5h0.1c57 41.6 208.4 78.4 348.3 52.4 27.3-5 54.1-12.4 79.6-22.6 25.6-10.3 50-23.3 72.3-39.5h0.1c61.2-49.9 104.1-50.2 139-19.5 7.9 6.9 15.4 15.5 22.6 25.3z"/>
							<path id="&lt;Path&gt;" class="s0" d="m774.3 300.1c-8.2-12-16.7-22.1-25.8-30-34.2-29.7-76.8-28.8-138 21.9-21.8 16.3-45.8 29.4-71.1 39.8-25.4 10.4-52.2 18-79.4 23.2-140.4 26.9-295.3-9.2-352.5-54.7-81-41.3-96.1-89.7-109.2-131.5-4-12.7-7.7-24.8-13.1-36-23.4-48.2-77.2-77.6-309.1-56.7l0.2-0.5c232-20.9 285.9 8.7 309.4 57.2 5.4 11.1 9.2 23.3 13.1 36 13.1 41.7 28.1 90 108.9 131.1h0.1c57 45.5 211.7 81.5 351.9 54.7 27.2-5.3 54-12.9 79.3-23.2 25.3-10.4 49.3-23.5 71.1-39.8 61.4-50.9 104.3-51.8 138.7-21.8 9.1 7.9 17.6 18 25.7 29.8z"/>
							<path id="&lt;Path&gt;" class="s0" d="m773.3 302.1c-8.9-14-18.3-25.7-28.6-34.5-33.7-29.1-76.3-27.6-137.8 24.1-21.2 16.3-44.7 29.6-69.9 40.1-25.1 10.6-51.8 18.3-79.1 23.7-140.5 27.8-298.7-7.5-356.1-56.9-74.7-45.1-89.7-93-102.2-133.1-4-12.8-7.8-24.8-13.1-35.7-23.2-46.8-77-72.3-312.9-48.3l0.2-0.5c236-23.9 289.8 1.7 313.2 48.8 5.4 10.9 9.1 22.9 13.1 35.7 12.5 40 27.5 87.8 101.9 132.7l0.1 0.1c57.2 49.2 215.1 84.5 355.5 56.8 27.3-5.4 54-13.2 79.1-23.7 25.1-10.5 48.6-23.8 69.8-40.1 61.7-51.9 104.6-53.3 138.6-24 10.2 8.8 19.6 20.4 28.5 34.3z"/>
							<path id="&lt;Path&gt;" class="s0" d="m772.4 304.2c-9.6-16.1-19.9-29.3-31.2-39-33.4-28.6-76.1-26.5-137.8 26.2q-4 3.2-8.2 6.2c-73.9 54.5-178.1 72.6-273.8 68.1-95.8-4.4-183.2-31.5-223.6-67.2q-0.9-0.8-1.7-1.6c-68.5-48.7-83.2-96.1-95.2-134.6-4-13.1-7.8-25.1-13.2-35.8-23-45.5-76.7-66.6-316.6-39.5l0.2-0.5c239.9-27.1 293.7-5.8 316.9 39.9 5.4 10.8 9.2 22.8 13.2 35.9 12 38.4 26.7 85.8 95 134.3q0.9 0.8 1.8 1.6c40.2 35.7 127.4 62.6 223 67.1 95.7 4.4 199.8-13.7 273.6-68.1q4.1-3 8.1-6.2c62-52.9 105-54.9 138.6-26.1 11.3 9.7 21.5 22.9 31.1 38.8z"/>
							<path id="&lt;Path&gt;" class="s0" d="m771.4 306.4c-10.2-18.2-21.3-33-33.7-43.6-33-28.1-75.8-25.4-137.9 28.3q-11.4 9.4-24 17.5c-72.7 47.2-172.1 62.9-263.7 58-91.6-5-175.3-30.7-216.3-66.4q-2.9-2.5-5.4-5c-62.5-51.8-76.9-98.9-88.2-136.1-4.1-13.5-7.8-25.7-13.3-36.2-22.9-44.3-76.7-60.8-320.3-30.4l0.2-0.6c243.7-30.2 297.6-13.6 320.6 30.9 5.5 10.6 9.2 22.8 13.3 36.3 11.4 37.1 25.7 84.2 88 135.8h0.1q2.5 2.6 5.3 5c40.9 35.7 124.4 61.3 215.9 66.2 91.4 5 190.8-10.8 263.4-57.9q12.5-8.1 24-17.5c62.3-53.9 105.3-56.5 138.7-28.2 12.3 10.6 23.3 25.3 33.5 43.3z"/>
							<path id="&lt;Path&gt;" class="s0" d="m770.3 308.7c-10.7-20.3-22.4-36.8-35.8-48.1-32.8-27.8-75.7-24.5-138.3 30.2-11.9 10.1-24.9 19.2-38.8 27.2-71.4 41-166.5 54.8-254.2 49.4-87.7-5.3-168-29.9-209.5-65.4q-4.9-4.2-9-8.5c-56.6-54.5-70.5-101.5-81.2-137.5-4.2-14.1-7.9-26.5-13.5-37.1-22.6-42.9-76.7-54.5-324-21l0.3-0.5c247.2-33.5 301.4-21.8 324.2 21.5 5.6 10.6 9.3 23 13.5 37.1 10.7 36 24.6 82.9 81.1 137.3q4.1 4.3 8.9 8.4c41.4 35.4 121.5 59.9 209.1 65.3 87.6 5.3 182.6-8.4 253.9-49.4 13.9-8 26.9-17.1 38.8-27.2 62.7-54.9 105.9-58.1 139-30.1 13.4 11.3 25.1 27.7 35.8 47.8z"/>
							<path id="&lt;Path&gt;" class="s0" d="m768.9 311.7c-11.2-22.6-23.6-40.9-38-53-32.2-27.1-75-23.3-137.7 32.2-15.6 13.8-33.5 25.7-53 35.7-70.1 35.9-161.3 48-245.5 42.2-84.2-5.7-161.5-29.3-203.5-64.6q-7-5.8-12.7-12.1c-51.1-57.1-64.4-104-74.4-139.2-4.3-14.8-7.9-27.6-13.6-38.1-22.2-41.3-76.6-47.6-327.3-10.7l0.9-1.8c250.6-36.8 305.3-30.1 328.1 12.3 5.7 10.6 9.4 23.5 13.6 38.5 10 35 23.3 81.6 74.1 138.3q5.5 6.1 12.4 11.9c41.5 34.9 118.2 58.2 202 64 83.9 5.7 174.8-6.3 244.6-42.2 19.4-9.9 37.2-21.7 52.8-35.5 63.4-56.1 107.1-59.7 140.3-31.9 14.3 12.1 26.7 30 37.8 52.2z"/>
						</g>
						<g id="&lt;Group&gt;">
							<path id="&lt;Path&gt;" class="s0" d="m781.4 228.3c-20.4 1.3-41.2 2.1-61.6 2.9-75.9 2.8-146.7 5.4-167.9 37.3-44.3 66.7-83.7 91.6-119.7 95.3-36 3.7-68.7-13.8-99.8-31.5-73.4-42-142.5-59.7-205.6-60.1-41.3-0.3-80 6.9-115.7 19.5-35.7 12.6-68.3 30.7-97.3 52.3-17.8 13.3-34.3 27.8-49.3 43.2l-0.1-0.4c15-15.4 31.3-29.8 49-43 29.1-21.6 61.8-39.8 97.5-52.4 35.7-12.6 74.5-19.8 115.9-19.5 63.2 0.4 132.4 18.1 206 60.1 31 17.7 63.5 35.1 99.4 31.4 35.8-3.7 75-28.4 119.2-95 21.4-32.1 92.3-34.8 168.4-37.6 20.4-0.7 41.2-1.5 61.5-2.9z"/>
							<path id="&lt;Path&gt;" class="s0" d="m780.7 225.4c-16.8 0.9-34 1.5-51.1 2-74.9 2.5-146.4 4.8-170.4 37.2-65.2 90.9-110.9 105.1-159.2 92.7-20.2-5.1-40.8-15-63.5-25.8l-3-1.4c-61.2-32.3-117.6-49.6-169.4-55.2-50.9-5.5-97.2 0.2-139 13.8-41.9 13.6-79.2 35.1-112 61.1-16.9 13.4-32.7 28-47.2 43.4l-0.2-0.5c14.5-15.2 30.2-29.8 47-43.1 32.9-26.1 70.3-47.6 112.2-61.2 41.9-13.6 88.3-19.4 139.4-13.8 51.8 5.6 108.3 22.8 169.5 55.2l3 1.5c22.7 10.8 43.2 20.6 63.4 25.7 48 12.4 93.5-1.8 158.6-92.5 24.1-32.6 95.8-35 170.9-37.4 17-0.5 34.1-1.1 51-2z"/>
							<path id="&lt;Path&gt;" class="s0" d="m780.1 222.4c-13.4 0.6-27 1-40.5 1.3-73.9 2.1-146.2 4.1-173 37-72.8 94.2-112.8 107.4-166.8 92.1-17-4.8-35.4-12.5-56.6-21.3q-4.2-1.8-8.6-3.6c-194-95.1-326.4-52.7-421.7 27.5-16.3 13.7-31.5 28.5-45.7 43.9l-0.1-0.5c14.1-15.3 29.2-30 45.4-43.6 95.5-80.4 228.2-122.8 422.4-27.6q4.4 1.9 8.6 3.6c21.2 8.8 39.6 16.5 56.6 21.3 53.7 15.2 93.5 2 166-91.9v-0.1c27-33.1 99.5-35.1 173.5-37.1 13.5-0.4 27.1-0.7 40.4-1.3z"/>
							<path id="&lt;Path&gt;" class="s0" d="m779.4 219.4c-9.8 0.3-19.8 0.5-29.7 0.7-72.8 1.6-145.9 3.2-175.8 36.7-82.4 99.3-114.1 110.3-179.4 90-13.9-4.3-29.2-10-46.9-16.6-3.7-1.4-7.5-2.8-12-4.5-206.2-94.1-330.7-46.6-422.6 35.3-15.7 14-30.4 28.9-44.4 44.4l-0.1-0.5c13.9-15.4 28.5-30.2 44.1-44.1 92.1-82.1 216.8-129.6 423.3-35.4 3.8 1.4 7.9 3 12 4.5 17.7 6.6 33 12.3 46.8 16.6 65.1 20.2 96.5 9.2 178.8-89.9 30-33.6 103.3-35.2 176.2-36.8 9.9-0.2 19.8-0.5 29.6-0.8z"/>
							<path id="&lt;Path&gt;" class="s0" d="m778.7 216.2q-9.4 0.2-18.9 0.3c-71.6 1.1-145.5 2.2-178.5 36.3-105.1 118-116.3 114.2-231.7 75.1-4-1.3-8.1-2.7-12.9-4.3v-0.1c-218.7-93-334.8-40.5-423.4 43.1-15.1 14.2-29.4 29.4-43.4 44.9l-0.1-0.5c13.9-15.4 28.1-30.4 43.1-44.6 88.8-83.7 205.1-136.3 424.1-43.1 4.1 1.3 8.6 2.9 12.9 4.3 115 39 126.1 42.8 230.9-74.9 33.2-34.3 107.3-35.4 179.1-36.5q9.4-0.2 18.7-0.3z"/>
							<path id="&lt;Path&gt;" class="s0" d="m777.9 212.9q-3.8 0-7.8 0.1c-70.3 0.5-145.2 1.1-181.5 35.9-2.2 2.3-5.5 5.8-8.8 9.3-50.9 53.5-76.4 80.2-105.3 88.5-28.9 8.4-61.1-1.7-125.5-21.8-3.9-1.2-7.9-2.5-11.2-3.5-231.3-91.9-338.5-34.3-423.8 50.7-14.7 14.6-28.8 30-42.7 45.6l-0.1-0.5c13.8-15.5 27.8-30.8 42.3-45.3 85.6-85.1 193-142.9 424.6-50.8 4.3 1.3 7.8 2.4 11.2 3.5 64.2 20.1 96.3 30.1 125 21.8 28.8-8.3 54.2-35 105.1-88.4 2.4-2.6 5-5.2 8.8-9.2v-0.1c36.5-34.9 111.5-35.5 182-36.1q3.8 0 7.7 0z"/>
							<path id="&lt;Compound Path&gt;" class="s0" d="m777.2 209.5l-0.1-0.3c-68.1 0-142.2 0.5-181.5 35.6-13.6 13.3-25.2 25.1-35.6 35.5-36.5 36.8-56.2 56.7-79.9 63.6-27.9 8-61.5-1.8-134.5-23.1l-6.5-1.9c-280.4-104.3-368-6-460.6 97.9q-2.9 3.3-5.9 6.6l0.1 0.5q3.1-3.5 6.3-7c92.4-103.7 179.9-201.8 459.9-97.7l6.5 1.9c73.1 21.4 106.8 31.2 134.8 23.1 23.9-6.9 43.7-26.8 80.2-63.7 10.4-10.5 22.1-22.3 35.6-35.5 39.2-35 113.2-35.5 181.2-35.5z"/>
							<path id="&lt;Path&gt;" class="s0" d="m776.4 206c-63.5-0.5-132.6 1.3-173.1 35.1-21.8 20-38.6 36.8-52.4 50.6-65.1 65.2-65.4 65.4-211 25.3-280.1-97.6-359.3-7.7-445.5 90.2-6.7 7.6-13.4 15.3-20.3 22.9l-0.1-0.5c6.7-7.5 13.4-15 19.9-22.5 86.4-98.1 165.7-188.1 446.3-90.4 145.2 40 145.5 39.7 210.3-25.1 13.8-13.9 30.6-30.7 52.4-50.7 40.7-33.9 109.8-35.7 173.4-35.2z"/>
							<path id="&lt;Path&gt;" class="s0" d="m775.6 202.4c-59.2-0.7-123.4 2.2-164.9 34.7-28.7 24.7-48.4 44.7-63.8 60.4-54.1 55-55.8 56.6-205.9 17.3-281.6-92.1-353.8-7.9-433.9 85.4-10.3 12-20.7 24.1-31.7 36l-0.1-0.5c10.9-11.8 21.2-23.8 31.3-35.6 80.3-93.5 152.6-177.8 434.7-85.6 149.7 39.2 151.3 37.6 205.2-17.2 15.4-15.7 35.1-35.7 63.8-60.3v-0.1c41.6-32.6 106-35.6 165.2-34.8z"/>
							<path id="&lt;Path&gt;" class="s0" d="m774.8 198.7c-54.9-0.7-114.6 3.4-156.8 34.5-34.5 27.9-55.7 50.1-71.6 66.9-46.1 48.5-48.9 51.5-204.3 12.5-284.2-87.2-350.3-7.3-424.5 82.5-12.9 15.7-26.1 31.7-40.8 47.1l-0.1-0.5c14.5-15.3 27.6-31.2 40.5-46.8 74.3-89.9 140.5-170 425.1-82.6 155 38.8 157.8 35.9 203.7-12.4 15.9-16.7 37.1-39 71.6-66.9 42.4-31.2 102.2-35.4 157.1-34.6z"/>
							<g id="&lt;Group&gt;">
								<path id="&lt;Compound Path&gt;" class="s0" d="m773.9 195v-0.3c-50.8-0.6-106.2 4.6-148.9 34.4-39.7 30.1-61.4 54-77.3 71.6-39.6 43.9-43.5 48.1-204.3 9.4-287.9-83.1-348.7-5.9-417.3 81.1-14.9 18.9-30.1 38.2-48.1 56.4l0.1 0.5c18.1-18.4 33.5-37.8 48.4-56.8 68.5-86.9 129.2-163.9 416.6-80.9h0.1c161.2 38.9 165.1 34.6 205-9.5 15.9-17.6 37.5-41.5 77.1-71.6 42.6-29.7 97.9-34.9 148.6-34.3z"/>
							</g>
							<g id="&lt;Group&gt;">
								<path id="&lt;Compound Path&gt;" class="s0" d="m773.1 191.3l-0.1-0.4c-46.7-0.2-98 6.1-140.6 34.3h-0.1c-44.3 31.5-65.8 56.8-81.2 75.1-34.8 41-39.5 46.5-206.7 7.6-291.7-79.3-347.7-4.1-410.9 80.7-16.2 21.7-32.9 44.2-54.2 64.8l0.1 0.4c21.5-20.7 38.3-43.2 54.6-65.1 63.1-84.7 118.9-159.6 410.2-80.4 167.6 38.9 172.3 33.3 207.3-7.9 15.5-18.2 36.9-43.5 81.2-75 42.6-28.1 93.7-34.4 140.4-34.1z"/>
							</g>
							<path id="&lt;Path&gt;" class="s0" d="m772.3 187.5c-42.9 0.3-90.1 7.5-132.3 34-48.4 32.4-69.2 58.8-84.1 77.7-30.9 39.3-36.3 46.1-210.6 6.9-295.7-75.7-347.1-2.1-404.9 80.8-17.2 24.5-34.9 49.9-59.8 72.5l-0.1-0.5c24.7-22.4 42.3-47.7 59.4-72.2 58-83 109.5-156.8 405.6-81 173.9 39.1 179.2 32.4 210-6.7 14.8-18.9 35.7-45.3 84.2-77.8 42.3-26.5 89.6-33.7 132.5-34z"/>
							<path id="&lt;Path&gt;" class="s0" d="m771.5 183.9c-39.2 1-82.8 8.9-124.1 33.6-52.3 32.9-72.2 60.3-86.3 79.8-27.5 38.1-33.3 46.2-214.7 6.6-300.6-72.5-347.8 0.3-400.6 81.8-17.6 27.1-35.8 55.1-64 79l-0.1-0.4c28-23.9 46.1-51.8 63.6-78.7 53-81.7 100.3-154.7 401.3-82 181 39.5 186.8 31.4 214.1-6.4 14.1-19.5 33.9-46.9 86.4-79.9 41.4-24.8 85-32.8 124.3-33.7z"/>
							<path id="&lt;Path&gt;" class="s0" d="m770.7 180.4c-35.8 1.8-75.9 10.3-116 33.2-55.9 33.1-74.5 61.4-87.7 81.5-24.6 37.3-30.7 46.7-219.6 6.6-305.7-69.6-349 3-397 83.4-17.6 29.4-35.7 59.8-67.4 84.8l-0.1-0.5c31.5-24.9 49.6-55.1 67-84.4 48.1-80.6 91.5-153.3 397.7-83.6 188.4 40 194.5 30.7 218.9-6.4 13.3-20.2 31.9-48.5 87.9-81.6 40.2-23 80.3-31.6 116.2-33.3z"/>
							<path id="&lt;Path&gt;" class="s0" d="m769.9 177.1c-32.6 2.6-69.4 11.6-107.8 32.6-59.3 32.9-76.5 62.1-88.9 82.9-21.9 36.9-28.2 47.6-224.7 6.9-311.3-66.8-350.8 5.8-394.2 85.5-17.1 31.5-34.9 64.2-70.2 89.8l-0.1-0.5c35.1-25.5 52.8-58 69.9-89.4 43.4-79.9 83-152.6 394.8-85.7 196 40.6 202.3 30 224.1-6.7 12.3-20.9 29.6-50.1 89-83.1 38.5-21 75.4-30 108.1-32.6z"/>
							<path id="&lt;Path&gt;" class="s0" d="m769.4 174.5c-29.6 3.3-63.3 12.5-99.6 31.6-62.3 32.5-78.1 62.4-89.4 83.8-19.7 37.1-26.1 49.3-231 7.8-316.6-64.1-352.3 8.7-391.1 87.7-16.6 33.7-33.7 68.6-73.1 94.5l-0.3-1.4c38.6-25.7 55.5-60.1 71.8-93.4 39-79.6 75-153 393.3-88.5 203.3 41.2 209.6 29.3 228.8-7 11.4-21.6 27.3-51.6 90-84.4 36.6-19.1 70.5-28.4 100.3-31.8z"/>
						</g>
						<g id="&lt;Group&gt;" style="opacity: .4">
							<path id="&lt;Path&gt;" class="s0" d="m882.6-54.1c-37.6 14.6-57.1 42.2-68.6 79.7-44 144.8-150.1 206.8-225.3 250.9-36.4 21.3-65.6 38.3-77 58.5-52.9 93.7-97.9 114.7-144.4 104.8-29.3-6.3-59.1-24.9-92-45.3-21.4-13.3-44.1-27.5-68.8-39.5-77.8-37.9-175-54.5-312.8 41.9l-0.2-0.4c138-96.5 235.4-79.8 313.4-41.8 24.7 12 47.4 26.2 68.9 39.5 32.8 20.4 62.5 39 91.7 45.2 46.1 9.9 90.8-11.2 143.6-104.6 11.5-20.2 40.7-37.3 77.1-58.6 75.2-44 181.2-106 225.2-250.7 11.5-37.6 31.2-65.4 69-80z"/>
							<path id="&lt;Path&gt;" class="s0" d="m882.7-54c-39.7 13.3-60.5 41-71.4 81.6-42.9 146.8-153.2 210.8-230.4 255.5-34.5 20.1-62.3 36.2-74.5 54.2-54.4 89.3-99.7 108.1-145.9 97.4-28.1-6.5-56.5-23.9-87.6-42.9-20.8-12.7-42.8-26.2-66.6-37.5-76.5-36.5-172.2-51.4-309.9 47.8l-0.2-0.5c137.9-99.2 233.8-84.2 310.5-47.6 23.8 11.3 45.9 24.8 66.7 37.5 31 19 59.3 36.4 87.3 42.8 45.9 10.6 90.9-8.1 145.1-97.2 12.2-18 40.1-34.2 74.7-54.2 77.1-44.8 187.4-108.7 230.2-255.4 10.9-40.7 31.8-68.5 71.8-81.9z"/>
							<path id="&lt;Path&gt;" class="s0" d="m882.8-53.7c-41.8 11.9-63.9 39.6-74.2 83.3-41.7 149.2-157.1 215.3-236.3 260.6-32.3 18.5-58.5 33.6-71.3 49.4-55.9 85.1-101.5 101.5-147.5 90-26.9-6.7-53.8-22.9-83-40.5-20.1-12.1-41.4-24.9-64.4-35.6-75.1-35-169.2-48.3-307 53.7l-0.2-0.4c138-102.1 232.3-88.8 307.6-53.6 23.1 10.7 44.3 23.5 64.5 35.6 29.1 17.5 56 33.7 82.7 40.4 45.7 11.4 91-4.9 146.7-89.7v-0.1c12.8-15.8 39.2-30.9 71.5-49.5 79.1-45.3 194.4-111.3 236-260.4 10.4-43.8 32.6-71.7 74.7-83.6z"/>
							<path id="&lt;Path&gt;" class="s0" d="m883-53.3c-44 10.4-67.4 38-77.2 84.9-40.5 152-161.8 220.4-243.1 266.2-29.7 16.7-54 30.5-67.1 44.1-57.6 81-103.6 94.9-149.5 82.4-25.4-6.9-50.7-21.9-78-38-19.4-11.5-39.9-23.6-62.1-33.7-73.7-33.6-166.2-45.2-304.2 59.8l-0.2-0.4c138.1-105.1 230.9-93.5 304.8-59.7 22.2 10.1 42.7 22.2 62.2 33.8 27.2 16 52.5 31 77.8 37.8 45.5 12.4 91.3-1.4 148.7-82.1 13.1-13.8 37.4-27.5 67.2-44.3 81.2-45.8 202.4-114.1 242.9-266 9.8-47 33.4-74.8 77.6-85.2z"/>
							<path id="&lt;Path&gt;" class="s0" d="m883.3-52.8c-46.2 8.8-71 36.3-80.2 86.3-39.4 155.6-168 226.5-251.2 272.4-26.7 14.7-48.7 26.9-61.6 38.4-59.6 77-106.1 88.1-152 74.6-23.8-7.1-47.4-20.8-72.5-35.4-18.8-10.9-38.5-22.3-59.8-31.8-72.4-32.3-163.3-42.3-301.4 65.9l-0.3-0.5c138.4-108.2 229.5-98.2 302.1-65.7 21.3 9.5 41 20.9 59.8 31.9 25.1 14.5 48.7 28.2 72.4 35.2 45.5 13.5 91.8 2.3 151.1-74.4 13-11.6 35-23.8 61.7-38.5 83.2-45.9 211.7-116.7 251-272.1 9.3-50.2 34.2-77.8 80.7-86.7z"/>
							<path id="&lt;Path&gt;" class="s0" d="m883.6-52.1c-48.4 7.1-74.7 34.3-83.3 87.6-38.2 159.8-175.8 233.5-260.9 279.1-23 12.4-42.2 22.7-54.5 32-61.8 73.3-108.9 81.5-155 66.6-21.9-7.1-43.6-19.5-66.5-32.5-18.1-10.3-37-21.1-57.4-30-71.1-31.1-160.2-39.4-298.7 72.1l-0.3-0.5c138.7-111.5 228.1-103.1 299.3-71.9 20.5 8.9 39.4 19.7 57.6 30 22.8 13 44.4 25.4 66.3 32.4 45.7 14.8 92.6 6.6 154.1-66.4h0.1c12.3-9.4 31.5-19.7 54.6-32.1 85-45.5 222.5-119.2 260.7-278.8 8.6-53.5 35.1-80.8 83.7-88z"/>
							<path id="&lt;Path&gt;" class="s0" d="m884-51.4c-50.6 5.4-78.5 32.2-86.4 88.9-37.2 165.1-186.4 242.1-272.8 286.6-18.6 9.6-34.3 17.7-45.3 24.8-64.4 69.8-112.4 74.7-158.8 58.2-19.8-7-39.3-17.9-59.6-29.3-17.5-9.7-35.6-19.9-55.1-28.2-69.7-29.8-157.1-36.6-296 78.4l-0.2-0.4c139-115 226.6-108.2 296.5-78.3 19.6 8.3 37.7 18.4 55.2 28.2 20.3 11.4 39.8 22.3 59.5 29.3 46.1 16.3 93.8 11.5 158-58.1 11.1-7.2 26.8-15.3 45.4-24.9 86.4-44.5 235.4-121.4 272.5-286.3 8-56.9 36-83.8 86.9-89.3z"/>
							<path id="&lt;Path&gt;" class="s0" d="m884.5-50.5c-53 3.6-82.4 30-89.7 90-36.3 172.2-201 252.7-287.5 295-13.1 6.4-24.4 11.9-33.2 16.8-67.8 66.7-116.8 67.6-164 49.1-17.1-6.7-33.9-15.9-51.3-25.5-16.9-9.2-34.2-18.8-52.9-26.5-68.3-28.6-153.8-33.8-293.2 84.8l-0.2-0.4c139.5-118.6 225.2-113.4 293.8-84.8 18.7 7.8 36.1 17.4 52.9 26.6 17.4 9.6 34.2 18.8 51.3 25.5 46.8 18.3 95.5 17.5 163.1-49.1h0.1c8.8-4.9 20.1-10.4 33.2-16.8 86.5-42.3 251-122.7 287.3-294.7v-0.1c7.3-60.2 36.9-86.6 90.1-90.3z"/>
							<path id="&lt;Path&gt;" class="s0" d="m885-49.5c-55.2 1.7-86.3 27.5-92.9 91-35.9 182.4-223.2 266.9-306.7 304.5-6.1 2.8-11.7 5.3-16.6 7.6-93.1 82.6-149.6 52.2-212.3 18.4-16.2-8.8-32.8-17.7-50.6-25-67-27.4-150.5-30.9-290.4 91.5l-0.3-0.5c140.1-122.4 223.8-118.8 291-91.3 17.9 7.3 34.5 16.2 50.7 25 62.5 33.6 118.7 63.9 211.4-18.4h0.1c4.9-2.3 10.5-4.8 16.7-7.6 83.3-37.6 270.6-122 306.4-304.3h-0.1 0.1c6.6-63.6 37.8-89.5 93.3-91.3z"/>
							<path id="&lt;Path&gt;" class="s0" d="m885.6-48.4c-57.6-0.3-90.3 24.9-96.3 91.8v0.1c-17.5 96.7-80 167.4-147.6 217.7-67.5 50.2-140.2 79.9-178.3 94.7-93.4 74.3-149 44.9-209.1 13.1-15.7-8.2-31.6-16.7-48.6-23.5-65.6-26.2-147-28.1-287.5 98.2l-0.2-0.5c140.6-126.3 222.2-124.4 288.1-98 17 6.8 32.9 15.2 48.6 23.5 59.8 31.7 115.2 61 208.2-13l0.1-0.1c38.1-14.8 110.7-44.5 178.2-94.7 67.6-50.2 130-120.8 147.5-217.5 6-67.1 38.9-92.4 96.7-92.2z"/>
							<path id="&lt;Path&gt;" class="s0" d="m886.2-47.2q-1.7 0-3.5-0.1c-57.7-1.2-91 23.7-96.1 92.7v0.1c-4.5 26.7-12.5 51.6-23.3 74.7-10.8 23.1-24.3 44.4-39.7 63.9-79.2 100.6-207.4 155.3-265.6 174.2-93.6 66-148.4 37.6-205.9 7.7-15.1-7.8-30.4-15.8-46.6-22.1-64.3-25.2-143.4-25.3-284.6 105.1l-0.2-0.5c141.2-130.4 220.6-130.2 285.2-104.9 16.2 6.3 31.5 14.3 46.6 22.1 57.3 29.8 111.9 58.1 205.1-7.7l0.1-0.1c58-18.7 186.2-73.5 265.3-173.9 15.4-19.6 28.9-40.8 39.7-63.9 10.8-23.1 18.8-47.9 23.3-74.7 5.1-69.3 38.6-94.3 96.8-93.1q1.6 0.1 3.2 0.1z"/>
							<path id="&lt;Path&gt;" class="s0" d="m886.9-45.8q-5.6-0.4-11-0.5c-55.5-0.9-87.8 24.2-92.1 93.7-3.9 26.5-11.6 51.2-22.1 74.3-10.5 23-23.9 44.4-39.2 64.1-78.5 101.2-208.4 158.5-269.9 174.8-93.6 58-147.6 30.5-202.7 2.4-14.6-7.5-29.2-15-44.7-20.9-63-24.1-139.7-22.4-281.5 112.1l-0.3-0.4c141.9-134.6 218.9-136.2 282.1-112 15.5 5.9 30.2 13.4 44.8 20.9 54.9 27.9 108.7 55.4 201.9-2.4l0.1-0.1c61.4-16.2 191.2-73.4 269.7-174.6 15.2-19.7 28.6-41 39.1-64 10.5-23.1 18.1-47.8 22.1-74.2 4.3-69.8 36.9-95 92.8-94.1q5.2 0.1 10.7 0.4z"/>
							<path id="&lt;Path&gt;" class="s0" d="m887.7-44.4q-9.4-1-18-1.1c-53.7-0.6-85.2 24.8-88.6 94.9v0.1c-3.5 26.1-10.8 50.6-21 73.6-10.3 23-23.4 44.5-38.6 64.3-77.9 102-209.5 161.8-274.2 175.5-93.5 50.2-146.9 23.4-199.5-3-14.2-7.1-28.3-14.2-43.1-19.8-61.6-23-135.8-19.5-278.2 119.4l-0.3-0.5c142.5-138.9 216.9-142.4 278.8-119.2 14.9 5.6 29 12.7 43.2 19.8 52.4 26.3 105.6 53 198.7 3h0.1c64.6-13.7 196.1-73.4 274-175.4 15.1-19.8 28.2-41.2 38.4-64.2 10.2-22.9 17.6-47.5 21.1-73.6 3.4-70.4 35.1-95.9 89.2-95.3q8.5 0.1 17.8 1.1z"/>
							<path id="&lt;Path&gt;" class="s0" d="m888.5-42.9q-13-1.7-24.7-1.8c-52.1-0.3-82.8 25.4-85.4 96.1l-0.1 0.2c-3 25.8-10 50.2-19.9 73.1-10 23-22.9 44.5-38 64.5-77.4 102.6-210.5 165-278.5 176-93.2 42.6-145.9 16.5-196.2-8.4-13.8-6.8-27.4-13.6-41.7-18.8-60.3-22.1-131.8-16.6-274.8 126.8l-0.2-0.5c143.1-143.3 214.8-148.8 275.4-126.6 14.2 5.2 27.9 12 41.7 18.8 50.2 24.8 102.6 50.8 195.4 8.4h0.2c67.8-11.1 200.8-73.3 278.2-175.9 15-20 27.9-41.4 37.9-64.4 9.9-22.9 16.8-47.3 19.9-73v-0.2c2.6-71 33.6-96.8 86.1-96.5 7.7 0.1 15.9 0.7 24.5 1.8z"/>
							<path id="&lt;Path&gt;" class="s0" d="m889.3-41.2c-11-1.8-21.4-2.7-31-2.8-50.7-0.1-80.8 26-82.7 97.4-2.6 25.5-9.1 49.7-18.8 72.6-9.6 22.9-22.3 44.5-37.3 64.6-76.8 103.5-211.7 168.5-283 177-92.7 35.1-144.7 9.6-192.8-13.9-13.5-6.6-26.8-13.1-40.5-18-59.1-21.1-127.6-13.5-271.2 134.4l-0.3-0.5c143.7-147.9 212.5-155.5 271.8-134.3 13.8 5 27 11.5 40.6 18.1 48 23.4 99.8 48.8 192.1 13.8h0.1c71.2-8.5 205.9-73.3 282.7-176.7 14.9-20.1 27.6-41.7 37.2-64.6 9.7-22.9 16.2-47.1 18.8-72.5v-0.1c1.9-71.6 32.2-97.8 83.3-97.7 9.6 0.1 19.9 1 30.8 2.7z"/>
							<path id="&lt;Path&gt;" class="s0" d="m890.3-39.5c-13.4-2.5-25.8-3.8-37.1-3.8-49.7 0-79.2 26.5-80.3 98.6v0.1c-2.1 25.1-8.3 49.2-17.7 72-9.3 22.9-21.9 44.6-36.7 64.9-76.2 104.2-212.7 171.7-287.4 177.6-91.9 27.9-143.4 3-189.3-19.3-13.4-6.5-26.4-12.8-39.7-17.4-57.8-20.2-123.2-10.3-267.3 142.2l-0.3-0.5c144.2-152.5 209.9-162.4 267.9-142.1 13.4 4.7 26.3 11 39.7 17.5 45.9 22.2 97.2 47 188.8 19.2h0.1c74.5-5.9 210.8-73.3 287-177.4 14.8-20.3 27.3-41.9 36.6-64.7 9.4-22.9 15.5-47 17.6-72v-0.1c1.2-72.4 30.9-99 81-99 11.2 0 23.6 1.3 36.8 3.8z"/>
							<path id="&lt;Path&gt;" class="s0" d="m891.2-37.6c-15.6-3.4-30-5.2-43-5.1-48.6 0.2-77.6 27.1-78.1 100-1.6 24.8-7.4 48.8-16.5 71.6-9 22.8-21.4 44.6-36.1 65-75.6 105-213.8 174.9-291.8 178.3-90.9 21-141.8-3.5-185.8-24.7-13.4-6.5-26.1-12.6-39.2-17.1-56.5-19.3-118.7-6.8-263.2 150.3l-0.2-0.5c144.6-157.1 206.9-169.5 263.7-150.1 13.1 4.5 25.9 10.6 39.3 17.1 43.8 21.1 94.6 45.6 185.2 24.6h0.1c77.8-3.3 215.8-73.2 291.3-178.1 14.7-20.4 27.1-42.1 36.1-64.9 9.1-22.8 14.9-46.7 16.5-71.5 0.5-73.2 29.7-100.2 78.7-100.4 13-0.1 27.3 1.7 42.8 5z"/>
							<path id="&lt;Path&gt;" class="s0" d="m892.2-35.7c-17.8-4.2-34.1-6.6-48.7-6.5-47.8 0.4-76.3 27.7-76.1 101.5-1.2 24.5-6.6 48.2-15.4 71-8.8 22.8-20.9 44.6-35.5 65.2-75 105.7-214.9 178.3-296.2 179-89.8 14.4-140.1-9.8-182.3-30.1-13.5-6.5-26.1-12.6-38.9-16.9-55.3-18.4-114-3.2-258.8 158.6l-0.2-0.5c144.8-161.8 203.7-177 259.3-158.4 12.9 4.3 25.5 10.4 39 16.9 42.1 20.2 92.3 44.4 181.8 30.1l0.1-0.1c81-0.7 220.7-73.1 295.6-178.8 14.6-20.5 26.7-42.3 35.5-65.1 8.8-22.7 14.2-46.5 15.3-70.9-0.1-74.1 28.6-101.5 76.8-101.9 14.5-0.1 30.8 2.2 48.5 6.5z"/>
							<path id="&lt;Path&gt;" class="s0" d="m893.3-33.6c-20-5.3-38.3-8.2-54.3-8.1-47.1 0.6-75.1 28.3-74.4 103q-0.1 4.7-0.5 9.3c-6.2 83.5-63.8 160.2-134.4 215.9-70.6 55.8-154.2 90.6-212.2 90.4q-1.3 0-2.6 0c-88.4 8.1-138.2-16-178.7-35.6-13.7-6.6-26.3-12.7-39-16.8-54-17.7-109.2 0.6-254.1 166.9l-0.2-0.5c144.9-166.3 200.2-184.5 254.6-166.8 12.7 4.2 25.4 10.3 39.1 16.9 40.4 19.5 90.1 43.6 178.3 35.5q1.3 0 2.6 0c57.8 0.2 141.2-34.6 211.7-90.2 70.5-55.7 128.1-132.3 134.3-215.7q0.4-4.6 0.5-9.3c-0.8-75 27.5-102.8 75-103.4 16-0.1 34.1 2.8 54.1 8z"/>
							<path id="&lt;Path&gt;" class="s0" d="m894.4-31.4c-22.2-6.4-42.3-10-59.7-9.8-46.5 0.7-74.2 28.8-72.8 104.5q-0.2 13.6-2.2 27c-11.4 77.6-67.7 149.7-135.8 202.5-68.1 52.8-147.9 86.3-206.4 86.6q-4.1 0-7.9-0.2c-86.8 2.2-136.2-21.9-175.1-40.9-14.1-6.9-26.9-13.1-39.5-17.1-52.8-16.8-104.2 4.7-249.1 175.6l-0.2-0.5c144.9-170.9 196.4-192.4 249.6-175.5 12.7 4.1 25.5 10.3 39.6 17.2 38.8 19 88.1 43 174.7 40.8q3.9 0.2 7.9 0.2c58.3-0.3 137.9-33.7 205.9-86.4 68-52.8 124.3-124.8 135.7-202.3q2-13.4 2.1-27c-1.3-75.9 26.6-104.2 73.5-104.9 17.4-0.2 37.4 3.3 59.5 9.6z"/>
							<path id="&lt;Path&gt;" class="s0" d="m895.6-29.2c-24.3-7.6-46.3-11.9-65.1-11.6-46 0.8-73.3 29.5-71.4 106.1 0.2 14.4-1.4 28.7-4.4 42.9-15.6 72.5-70.6 140.6-136.3 190.7-65.7 50.1-142.2 82.3-200.9 83q-6.8 0.1-13.3-0.4c-85-3.3-133.9-27.5-171.4-46.1-14.7-7.3-27.6-13.7-40.3-17.7-51.6-16-99.1 9.1-243.8 184.5l-0.2-0.6c144.7-175.3 192.3-200.4 244.3-184.2 12.7 4 25.7 10.4 40.4 17.7 37.4 18.5 86.2 42.7 171 46q6.5 0.5 13.3 0.4c58.5-0.7 134.8-32.8 200.4-82.9 65.6-50 120.6-118.1 136.2-190.5 3-14.1 4.6-28.4 4.4-42.8-1.9-76.9 25.6-105.7 72-106.5 18.8-0.3 40.6 4 64.8 11.5z"/>
							<path id="&lt;Path&gt;" class="s0" d="m897.2-26.2c-26.7-9-50.6-14.1-70.8-13.7-45.1 0.9-71.8 29.9-69.3 107.1 0.6 19.3-2 38.5-7.2 57.5-19 68.2-72.7 132.6-136.3 180.4-63.6 47.7-137.2 78.7-196 79.9q-9.7 0.2-18.9-0.7c-83.3-8.4-131.7-33-168-51.4-15.4-7.8-28.6-14.5-41.3-18.3-49.9-15.2-93.2 13.8-237.5 193.6l-1-1.8c144.4-179.7 188.2-208.6 239.5-193 12.9 3.9 26.1 10.6 41.6 18.5 36.1 18.3 84.3 42.7 167 51.1q9 0.9 18.6 0.7c58.1-1.2 131.2-32 194.4-79.5 63.4-47.5 116.9-111.8 135.8-179.7 5.2-18.9 7.8-38.1 7.2-57.2-2.5-78.3 25-107.6 71.4-108.5 20.1-0.4 43.6 4.5 69.8 13.2z"/>
						</g>
					</g>
				</g>
			</g>
		</g>
	</g>
</svg>