<svg version="1.2" xmlns="http://www.w3.org/2000/svg" viewBox="0 0 3710 3710" width="3710" height="3710">
	<title>20943705-ai</title>
	<defs>
		<linearGradient id="g1" x2="1" gradientUnits="userSpaceOnUse" gradientTransform="matrix(-2976.289,-2604.251,2442.601,-2791.546,-546.092,4827.047)">
			<stop offset="0" stop-color="#dae3fe"/>
			<stop offset="1" stop-color="#e9effd"/>
		</linearGradient>
		<linearGradient id="g2" x2="1" gradientUnits="userSpaceOnUse" gradientTransform="matrix(-270.946,-903.722,817.102,-244.976,2385.104,4086.197)">
			<stop offset="0" stop-color="#4f52ff"/>
			<stop offset="1" stop-color="#4042e2"/>
		</linearGradient>
		<linearGradient id="g3" x2="1" gradientUnits="userSpaceOnUse" gradientTransform="matrix(513.696,146.183,-114.426,402.1,1699.176,2563.467)">
			<stop offset="0" stop-color="#febbba"/>
			<stop offset="1" stop-color="#ff928e"/>
		</linearGradient>
		<linearGradient id="g4" x2="1" gradientUnits="userSpaceOnUse" gradientTransform="matrix(-1102.583,1433.613,-1584.308,-1218.481,3647.523,2384.844)">
			<stop offset="0" stop-color="#4f52ff"/>
			<stop offset="1" stop-color="#4042e2"/>
		</linearGradient>
		<linearGradient id="g5" x2="1" gradientUnits="userSpaceOnUse" gradientTransform="matrix(495.202,-657.69,790.767,595.401,1681.525,2269.648)">
			<stop offset="0" stop-color="#febbba"/>
			<stop offset="1" stop-color="#ff928e"/>
		</linearGradient>
		<linearGradient id="g6" x2="1" gradientUnits="userSpaceOnUse" gradientTransform="matrix(-1052.438,1368.413,-1461.601,-1124.108,4343.811,2175.952)">
			<stop offset="0" stop-color="#4f52ff"/>
			<stop offset="1" stop-color="#4042e2"/>
		</linearGradient>
		<linearGradient id="g7" x2="1" gradientUnits="userSpaceOnUse" gradientTransform="matrix(-499.499,288.083,-1251.759,-2170.393,3642.421,2664.683)">
			<stop offset="0" stop-color="#09005d"/>
			<stop offset="1" stop-color="#1a0f91"/>
		</linearGradient>
		<linearGradient id="g8" x2="1" gradientUnits="userSpaceOnUse" gradientTransform="matrix(-1478.575,3030.359,-5004.998,-2442.042,2682.638,2801.106)">
			<stop offset="0" stop-color="#febbba"/>
			<stop offset="1" stop-color="#ff928e"/>
		</linearGradient>
		<linearGradient id="g9" x2="1" gradientUnits="userSpaceOnUse" gradientTransform="matrix(-705.544,424.841,-401.452,-666.701,2523.119,1773.721)">
			<stop offset="0" stop-color="#febbba"/>
			<stop offset="1" stop-color="#ff928e"/>
		</linearGradient>
		<linearGradient id="g10" x2="1" gradientUnits="userSpaceOnUse" gradientTransform="matrix(728.197,1189.749,-816.083,499.491,2323.163,847.555)">
			<stop offset="0" stop-color="#09005d"/>
			<stop offset="1" stop-color="#1a0f91"/>
		</linearGradient>
		<linearGradient id="g11" x2="1" gradientUnits="userSpaceOnUse" gradientTransform="matrix(-967.373,582.5,-516.937,-858.491,2874.479,1404.887)">
			<stop offset="0" stop-color="#febbba"/>
			<stop offset="1" stop-color="#ff928e"/>
		</linearGradient>
		<linearGradient id="g12" x2="1" gradientUnits="userSpaceOnUse" gradientTransform="matrix(758.241,223.775,-75.191,254.777,1368.322,2879.364)">
			<stop offset="0" stop-color="#09005d"/>
			<stop offset="1" stop-color="#1a0f91"/>
		</linearGradient>
		<linearGradient id="g13" x2="1" gradientUnits="userSpaceOnUse" gradientTransform="matrix(-1028.297,1384.502,-836.731,-621.457,2745.451,1146.822)">
			<stop offset="0" stop-color="#4f52ff"/>
			<stop offset="1" stop-color="#4042e2"/>
		</linearGradient>
		<linearGradient id="g14" x2="1" gradientUnits="userSpaceOnUse" gradientTransform="matrix(-248.312,324.715,-361.995,-276.82,2233.226,1584.597)">
			<stop offset="0" stop-color="#4f52ff"/>
			<stop offset="1" stop-color="#4042e2"/>
		</linearGradient>
		<linearGradient id="g15" x2="1" gradientUnits="userSpaceOnUse" gradientTransform="matrix(-1479.457,512.799,-738.128,-2129.544,2809.176,1257.786)">
			<stop offset="0" stop-color="#4f52ff"/>
			<stop offset="1" stop-color="#4042e2"/>
		</linearGradient>
		<linearGradient id="g16" x2="1" gradientUnits="userSpaceOnUse" gradientTransform="matrix(-209.461,329.551,-273.154,-173.615,2819.783,1399.694)">
			<stop offset="0" stop-color="#4f52ff"/>
			<stop offset="1" stop-color="#4042e2"/>
		</linearGradient>
		<linearGradient id="g17" x2="1" gradientUnits="userSpaceOnUse" gradientTransform="matrix(-345.662,-693.903,460.868,-229.578,2130.331,1704.909)">
			<stop offset="0" stop-color="#4f52ff"/>
			<stop offset="1" stop-color="#4042e2"/>
		</linearGradient>
		<linearGradient id="g18" x2="1" gradientUnits="userSpaceOnUse" gradientTransform="matrix(39.163,-861.581,7707.369,350.34,1805.493,3511.171)">
			<stop offset="0" stop-color="#09005d"/>
			<stop offset="1" stop-color="#1a0f91"/>
		</linearGradient>
		<linearGradient id="g19" x2="1" gradientUnits="userSpaceOnUse" gradientTransform="matrix(348.112,890.169,-875.455,342.358,1447.009,1829.483)">
			<stop offset="0" stop-color="#09005d"/>
			<stop offset="1" stop-color="#1a0f91"/>
		</linearGradient>
		<linearGradient id="g20" x2="1" gradientUnits="userSpaceOnUse" gradientTransform="matrix(181.986,1119.206,-760.073,123.59,1560.128,2234.417)">
			<stop offset="0" stop-color="#09005d"/>
			<stop offset="1" stop-color="#1a0f91"/>
		</linearGradient>
		<linearGradient id="g21" x2="1" gradientUnits="userSpaceOnUse" gradientTransform="matrix(518.151,339.579,-225.282,343.749,1225.34,2915.145)">
			<stop offset="0" stop-color="#09005d"/>
			<stop offset="1" stop-color="#1a0f91"/>
		</linearGradient>
		<linearGradient id="g22" x2="1" gradientUnits="userSpaceOnUse" gradientTransform="matrix(-2618.333,4891.264,-5017.492,-2685.903,1562.827,799.789)">
			<stop offset="0" stop-color="#ff928e"/>
			<stop offset="1" stop-color="#fe7062"/>
		</linearGradient>
		<linearGradient id="g23" x2="1" gradientUnits="userSpaceOnUse" gradientTransform="matrix(-2618.326,4891.25,-5017.477,-2685.896,2278.459,462.371)">
			<stop offset="0" stop-color="#ff928e"/>
			<stop offset="1" stop-color="#fe7062"/>
		</linearGradient>
		<linearGradient id="g24" x2="1" gradientUnits="userSpaceOnUse" gradientTransform="matrix(-2618.328,4891.255,-5017.481,-2685.898,1328.118,1041.949)">
			<stop offset="0" stop-color="#ff928e"/>
			<stop offset="1" stop-color="#fe7062"/>
		</linearGradient>
		<linearGradient id="g25" x2="1" gradientUnits="userSpaceOnUse" gradientTransform="matrix(-2618.326,4891.251,-5223.91,-2796.401,3260.442,164.795)">
			<stop offset="0" stop-color="#ff928e"/>
			<stop offset="1" stop-color="#fe7062"/>
		</linearGradient>
	</defs>
	<style>
		.s0 { fill: #ffffff } 
		.s1 { fill: url(#g1) } 
		.s2 { fill: #91b3fa } 
		.s3 { fill: #bdd0fb } 
		.s4 { fill: url(#g2) } 
		.s5 { fill: url(#g3) } 
		.s6 { fill: url(#g4) } 
		.s7 { fill: url(#g5) } 
		.s8 { fill: url(#g6) } 
		.s9 { fill: url(#g7) } 
		.s10 { fill: url(#g8) } 
		.s11 { fill: url(#g9) } 
		.s12 { fill: url(#g10) } 
		.s13 { fill: url(#g11) } 
		.s14 { fill: url(#g12) } 
		.s15 { fill: url(#g13) } 
		.s16 { fill: url(#g14) } 
		.s17 { fill: url(#g15) } 
		.s18 { fill: url(#g16) } 
		.s19 { fill: url(#g17) } 
		.s20 { fill: url(#g18) } 
		.s21 { fill: url(#g19) } 
		.s22 { fill: url(#g20) } 
		.s23 { fill: url(#g21) } 
		.s24 { fill: url(#g22) } 
		.s25 { fill: url(#g23) } 
		.s26 { fill: url(#g24) } 
		.s27 { fill: url(#g25) } 
	</style>
	<g id="_Artboards_">
	</g>
	<g id="Background">
		<g id="&lt;Group&gt;">
			<g id="&lt;Group&gt;">
				<path id="&lt;Path&gt;" class="s0" d="m-132 960v3710h-3710v-3710z"/>
			</g>
		</g>
	</g>
	<g id="Illustration">
		<g id="&lt;Group&gt;">
			<path id="&lt;Path&gt;" class="s1" d="m-2855.4 1785c266.1 626.5 974.9 977.5 1589.6 882.8 100-15.4 374.2-61.2 617-277.8 467.3-416.7 567.3-1242 190.3-1823.6-274.4-423.3-766.3-663.3-1233.7-651.3-100.6 2.6-486.5 18.5-825.5 298.1-49.8 41.1-159.7 138.7-258.7 293.5-232.4 363.5-252.4 870-79 1278.3z"/>
			<g id="&lt;Group&gt;">
				<g id="&lt;Group&gt;">
					<g id="&lt;Group&gt;">
						<path id="&lt;Path&gt;" class="s2" d="m2226.8 1374.3c1.9-0.1 3.6-1.2 4.6-2.9 3.7-6.5 7.6-13.1 11.6-19.4 1.7-2.7 0.9-6.2-1.8-7.9-2.7-1.7-6.2-0.9-7.9 1.8-4.1 6.5-8.1 13.2-11.9 19.9-1.5 2.7-0.6 6.2 2.2 7.8 1 0.5 2.1 0.8 3.2 0.7z"/>
						<path id="&lt;Compound Path&gt;" class="s2" d="m2681.7 2092.8c8.7-0.6 17.5-1.6 26.2-2.7 3.1-0.4 5.3-3.3 4.9-6.4-0.4-3.1-3.3-5.3-6.4-5-8.4 1.1-17.2 2-25.5 2.6-6.3 0.5-12.6 0.8-19 1.1-3.2-0.2-5.6 2.7-5.5 5.9 0.1 3.1 2.8 5.6 5.9 5.5 6.5-0.2 13-0.6 19.4-1zm-92.4-2.2c2.7-0.2 4.9-2.2 5.2-5 0.4-3.1-1.8-6-5-6.4-14.2-1.7-28.6-4.1-42.8-7.1l-1.2-0.2c-3.1-0.7-6.1 1.3-6.8 4.4-0.7 3.1 1.3 6.1 4.4 6.8l1.2 0.2c14.5 3.1 29.3 5.6 43.9 7.3q0.5 0.1 1.1 0zm-114.9-28.2c2.1-0.1 4.1-1.5 4.9-3.6 1.1-3-0.3-6.3-3.3-7.4-13.9-5.3-27.7-11.3-40.9-17.8-2.9-1.4-6.3-0.2-7.7 2.6-1.4 2.8-0.2 6.3 2.6 7.7 13.6 6.6 27.7 12.8 41.9 18.2q1.3 0.4 2.5 0.3zm-104.5-55.3c1.6-0.1 3.2-0.9 4.2-2.4 1.8-2.6 1.2-6.2-1.4-8-12.1-8.5-24-17.6-35.3-27.2-2.4-2.1-6-1.8-8.1 0.6-2 2.4-1.7 6 0.7 8.1 11.6 9.8 23.7 19.2 36.1 27.9 1.2 0.8 2.5 1.1 3.8 1zm-87.9-79.2c1.2-0.1 2.4-0.5 3.4-1.4 2.4-2 2.6-5.7 0.5-8.1-9.7-11.1-18.9-22.9-27.6-35-1.8-2.6-5.4-3.2-8-1.3-2.5 1.8-3.1 5.4-1.3 8 8.8 12.3 18.4 24.4 28.3 35.8 1.2 1.5 3 2.1 4.7 2zm-65.9-98.2q1.1-0.1 2.1-0.6c2.9-1.4 4-4.9 2.6-7.7-6.7-13.2-12.9-26.9-18.3-40.7-1.2-3-4.5-4.4-7.5-3.2-2.9 1.1-4.3 4.5-3.2 7.4 5.6 14.1 11.9 28.1 18.7 41.7 1.1 2.1 3.3 3.3 5.6 3.1zm-40.2-111.3q0.4 0 0.9-0.1c3-0.7 5-3.8 4.3-6.8-3.3-14.5-5.9-29.3-7.8-44-0.4-3.1-3.3-5.4-6.4-4.9-3.2 0.4-5.4 3.2-5 6.4 2 15 4.7 30.1 8 45 0.6 2.8 3.2 4.6 6 4.4zm-11.7-117.7c2.9-0.3 5.2-2.6 5.3-5.6 0.4-14.8 1.5-29.8 3.2-44.5 0.4-3.2-1.8-6-5-6.4-3.1-0.4-6 1.9-6.3 5-1.8 15.1-2.9 30.4-3.3 45.6-0.1 3.2 2.4 5.8 5.6 5.9q0.2 0 0.5 0zm17.4-117.1c2.4-0.2 4.4-1.8 5.1-4.2 4-14.3 8.6-28.6 13.9-42.4 1.1-2.9-0.4-6.3-3.4-7.4-2.9-1.1-6.2 0.4-7.3 3.3-5.4 14.2-10.2 28.8-14.2 43.5-0.9 3 0.9 6.2 4 7q0.9 0.3 1.9 0.2z"/>
						<path id="&lt;Path&gt;" class="s2" d="m2779.7 2075.1q0.5 0 1.1-0.2c7.4-2.1 14.8-4.5 22.1-6.9 3-1.1 4.6-4.3 3.6-7.3-1-3-4.3-4.6-7.3-3.6-7.1 2.5-14.4 4.7-21.6 6.8-3 0.9-4.7 4.1-3.9 7.1 0.8 2.7 3.3 4.3 6 4.1z"/>
					</g>
					<g id="&lt;Group&gt;">
						<path id="&lt;Path&gt;" class="s2" d="m3073.7 1834.3c1.9-0.2 3.7-1.3 4.6-3.1 3.6-6.8 7-13.8 10.2-20.8 1.3-2.9 0.1-6.3-2.8-7.6-2.9-1.3-6.3-0.1-7.6 2.8-3.1 6.9-6.5 13.7-9.9 20.3-1.5 2.8-0.4 6.3 2.4 7.7 1 0.5 2.1 0.7 3.1 0.7z"/>
						<path id="&lt;Compound Path&gt;" class="s2" d="m3108.9 1746c2.3-0.1 4.3-1.7 5-4.1 3.3-11.2 6.2-22.8 8.6-34.2q1-4.8 1.9-9.5c0.6-3.1-1.4-6.1-4.5-6.7-3.2-0.6-6.1 1.4-6.7 4.5q-0.9 4.6-1.9 9.3c-2.4 11.2-5.2 22.4-8.4 33.4-0.8 3.1 0.9 6.3 3.9 7.1q1.1 0.3 2.1 0.2zm18.6-114.9c2.9-0.2 5.2-2.5 5.3-5.4 0.6-15 0.5-30.1-0.2-45-0.2-3.2-2.9-5.6-6.1-5.4-3 0.2-5.5 2.8-5.4 6 0.8 14.5 0.9 29.3 0.3 43.9-0.2 3.1 2.3 5.8 5.5 5.9q0.3 0.1 0.6 0zm-9.4-116q0.3 0 0.7-0.1c3.1-0.7 5.1-3.7 4.4-6.8-3-14.6-6.7-29.3-11.1-43.6-0.9-3-4.1-4.7-7.1-3.8-3 1-4.7 4.2-3.8 7.2 4.2 13.9 7.9 28.2 10.8 42.5 0.6 2.9 3.2 4.8 6.1 4.6zm-37.2-110.3q1.1-0.1 2.1-0.6c2.8-1.4 4-4.8 2.7-7.6-6.5-13.5-13.6-26.8-21.3-39.7-1.6-2.7-5.1-3.6-7.8-1.9-2.7 1.6-3.6 5.1-2 7.8 7.5 12.5 14.4 25.5 20.7 38.7 1.1 2.2 3.3 3.4 5.6 3.3zm-62.4-98.3c1.1-0.1 2.3-0.5 3.2-1.3 2.4-2 2.8-5.6 0.8-8-9.5-11.6-19.6-22.8-30.1-33.5-2.2-2.2-5.8-2.2-8 0-2.3 2.2-2.3 5.8-0.1 8.1 10.2 10.4 20.1 21.4 29.3 32.6 1.3 1.5 3.1 2.2 4.9 2.1zm-84.1-80.5c1.6-0.1 3.2-0.9 4.2-2.2 1.9-2.6 1.4-6.2-1.2-8.1-11.9-8.9-24.4-17.4-37.2-25.2-2.7-1.6-6.2-0.8-7.8 1.9-1.7 2.7-0.8 6.2 1.9 7.9 12.4 7.6 24.6 15.9 36.3 24.6 1.1 0.9 2.5 1.2 3.8 1.1zm-100.9-57.8c2-0.2 4-1.4 4.8-3.5 1.2-2.9-0.1-6.3-3-7.5-13.8-5.8-28-11-42.2-15.5-3.1-1-6.3 0.7-7.2 3.7-1 3 0.7 6.3 3.7 7.2 13.9 4.4 27.8 9.5 41.2 15.2 0.9 0.3 1.8 0.5 2.7 0.4zm-112-31.9c2.6-0.2 4.8-2.2 5.3-4.8 0.5-3.2-1.7-6.1-4.8-6.6-14.7-2.4-29.8-4.1-44.7-5.1-3.1-0.1-5.9 2.2-6.1 5.4-0.2 3.1 2.2 5.9 5.4 6.1 14.5 0.9 29.2 2.6 43.6 4.9q0.7 0.1 1.3 0.1zm-160.4 1.4q0.3 0 0.6-0.1c14.4-2.5 29.1-4.5 43.6-5.7 3.1-0.3 5.5-3 5.2-6.2-0.3-3.1-3-5.4-6.1-5.2q-0.1 0-0.1 0c-14.9 1.3-29.9 3.2-44.6 5.9-3.1 0.5-5.2 3.5-4.6 6.6 0.5 2.9 3.2 4.9 6 4.7z"/>
						<path id="&lt;Path&gt;" class="s2" d="m2469.5 1163.7q0.9 0 1.7-0.3c7-2.8 14.1-5.4 21.2-7.9 3-1 4.6-4.2 3.6-7.2-1-3-4.3-4.6-7.3-3.6-7.2 2.5-14.6 5.2-21.7 8-2.9 1.2-4.4 4.5-3.2 7.4 0.9 2.4 3.3 3.8 5.7 3.6z"/>
					</g>
					<g id="&lt;Group&gt;">
						<path id="&lt;Compound Path&gt;" class="s2" d="m2467.7 1281.8c2-1.4 4.7-1.4 6.7 0.1l56.8 41.5c30.6-12.1 63.3-19.5 97.1-21.3l34.3-61.4c1.2-2.1 3.6-3.3 6-2.9l83.1 14.9c2.5 0.5 4.4 2.4 4.7 4.8l10.9 69.5c31 13.4 59.2 31.7 83.6 53.7l67.7-19.2c2.4-0.7 4.9 0.2 6.3 2.2l48.3 69.3c1.4 2 1.4 4.7-0.1 6.7l-41.5 56.9c12.1 30.5 19.5 63.2 21.3 97l61.4 34.3c2.1 1.2 3.3 3.6 2.9 6.1l-14.9 83.1c-0.5 2.4-2.4 4.3-4.8 4.7l-69.5 10.8c-13.4 31.1-31.7 59.2-53.7 83.6l19.2 67.7c0.7 2.4-0.2 5-2.2 6.4l-69.3 48.2c-2 1.4-4.7 1.4-6.7-0.1l-56.9-41.5c-30.5 12.2-63.2 19.5-97 21.3l-34.3 61.4c-1.2 2.2-3.6 3.3-6.1 2.9l-83.1-14.9c-2.4-0.4-4.3-2.4-4.7-4.8l-10.8-69.5c-31.1-13.4-59.2-31.6-83.6-53.6l-67.7 19.2c-2.4 0.6-5-0.3-6.4-2.3l-48.2-69.3c-1.4-2-1.4-4.7 0.1-6.7l41.5-56.9c-12.2-30.5-19.5-63.2-21.3-97l-61.4-34.3c-2.2-1.2-3.3-3.6-2.9-6l14.9-83.1c0.4-2.5 2.4-4.4 4.8-4.7l69.5-10.9c13.4-31 31.6-59.2 53.6-83.6l-19.2-67.7c-0.6-2.4 0.3-4.9 2.3-6.3z"/>
						<g id="&lt;Group&gt;">
							<path id="&lt;Compound Path&gt;" fill-rule="evenodd" class="s3" d="m2610.4 1686.3c-20.3-9.2-35.9-25.8-43.7-46.6-7.9-20.9-7.2-43.6 2-63.9 9.2-20.4 25.8-35.9 46.6-43.8 20.9-7.9 43.6-7.2 63.9 2 20.4 9.2 35.9 25.8 43.8 46.7 7.9 20.8 7.2 43.5-2 63.9-9.2 20.3-25.8 35.9-46.7 43.7-7.6 2.9-15.5 4.6-23.4 5.2-13.7 1.1-27.6-1.4-40.5-7.2zm11-138.2c-16.6 6.2-29.7 18.6-37.1 34.7-7.3 16.2-7.8 34.2-1.6 50.8 6.3 16.6 18.6 29.7 34.8 37 16.1 7.4 34.2 7.9 50.8 1.7 16.6-6.3 29.7-18.6 37-34.8 15.1-33.3 0.2-72.7-33.1-87.8-10.3-4.7-21.3-6.6-32.2-5.8-6.3 0.5-12.5 1.9-18.6 4.2z"/>
						</g>
						<path id="&lt;Path&gt;" class="s3" d="m2661.9 1823.5c37.4-2.8 73.5-15.5 105.1-37.5 46.6-32.4 77.7-81 87.7-136.8 3.2-18 4.1-36 2.8-53.7-2.8-37.4-15.5-73.5-37.5-105.1-32.4-46.5-81-77.7-136.8-87.7q-2.2-0.3-4.4-0.7c-12-1.9-24.2-2.8-36.2-2.6q-2.3 0-4.5 0.1l0.6 17.2c13.8-0.5 27.7 0.5 41.4 3 48.6 8.6 91.2 34.8 120.9 73.8q2.5 3.3 4.9 6.7c20.2 29.1 31.9 62.3 34.5 96.6 1.2 16.3 0.4 32.8-2.6 49.3-9.2 51.3-37.8 96-80.6 125.8-42.8 29.7-94.6 41.1-145.9 31.9-89.4-16-153.7-90.9-160.2-177.6-1.2-16-0.4-32.4 2.6-48.9 6.2-34.8 21.7-67.2 44.8-93.7l-12.9-11.3c-25.2 28.8-42.1 64.1-48.8 102-3.3 17.9-4.1 35.8-2.8 53.2 7 94.3 77 175.8 174.3 193.2 17.9 3.2 35.9 4.1 53.6 2.8z"/>
					</g>
				</g>
				<g id="&lt;Group&gt;">
					<g id="&lt;Group&gt;">
						<path id="&lt;Path&gt;" class="s2" d="m1604.4 1152.2c2.6-0.2 5-1.7 6.3-4.2 4.5-8.8 9.4-17.5 14.7-25.9 2.2-3.5 1.2-8.2-2.4-10.5-3.5-2.2-8.2-1.2-10.5 2.4-5.5 8.7-10.7 17.9-15.4 27.1-1.9 3.8-0.4 8.3 3.3 10.3 1.3 0.6 2.7 0.9 4 0.8z"/>
						<path id="&lt;Compound Path&gt;" class="s2" d="m1875.1 1630.7c3.7-0.3 6.8-3.3 7-7.1 0.4-4.2-2.8-7.9-7-8.2-14.8-1-29.7-3.1-44.3-6.2q-7.7-1.7-15.3-3.7c-4.1-1-8.2 1.4-9.3 5.5-1.1 4.1 1.3 8.2 5.4 9.3q7.9 2.1 16 3.8c15.3 3.2 30.9 5.5 46.4 6.6q0.6 0 1.1 0zm-152.9-50.1c2.4-0.2 4.6-1.4 5.9-3.5 2.3-3.6 1.2-8.3-2.4-10.5-16.9-10.8-33-23.2-47.7-36.9-3.1-2.9-7.9-2.7-10.8 0.3-2.9 3.1-2.7 7.9 0.4 10.8 15.4 14.4 32.2 27.4 50 38.7 1.4 0.9 3.1 1.2 4.6 1.1zm-110.9-116.5c1.1-0.1 2.2-0.4 3.2-0.9 3.7-2.1 5-6.8 2.9-10.4-9.9-17.6-18.2-36.1-24.7-55.1-1.4-4-5.7-6.2-9.7-4.8-4 1.4-6.1 5.7-4.8 9.7 6.8 19.9 15.5 39.3 25.9 57.7 1.5 2.6 4.4 4 7.2 3.8zm-42.7-155.1c4-0.3 7.2-3.7 7.1-7.7-0.5-20.1 1-40.3 4.4-60.2 0.7-4.2-2.1-8.1-6.3-8.8-4.1-0.8-8.1 2.1-8.8 6.2-3.5 20.9-5 42.1-4.6 63.1 0.1 4.2 3.6 7.5 7.8 7.5q0.2 0 0.4-0.1z"/>
						<path id="&lt;Path&gt;" class="s2" d="m1975.3 1622.3q0.6 0 1.3-0.1c10-2.5 20.1-5.4 29.9-8.8 4-1.3 6.1-5.7 4.7-9.6-1.3-4-5.7-6.1-9.6-4.8-9.4 3.2-19 6-28.6 8.3-4.1 1-6.6 5.1-5.6 9.2 0.8 3.7 4.3 6.1 7.9 5.8z"/>
					</g>
					<g id="&lt;Group&gt;">
						<path id="&lt;Path&gt;" class="s2" d="m2190.8 1453.8c2.6-0.2 4.9-1.7 6.2-4.1 4.8-9.2 9.2-18.7 13.1-28.4 1.6-3.9-0.3-8.3-4.2-9.9-3.9-1.6-8.4 0.3-10 4.2-3.7 9.2-7.9 18.3-12.4 27.1-2 3.7-0.5 8.3 3.2 10.2 1.3 0.7 2.7 1 4.1 0.9z"/>
						<path id="&lt;Compound Path&gt;" class="s2" d="m2226.7 1330.2c3.6-0.3 6.6-3.1 7-6.9 1.6-18 1.7-36.3 0.3-54.4q-0.3-3.9-0.7-7.8c-0.4-4.2-4.2-7-8.3-6.9-4.2 0.4-7.2 4.2-6.8 8.4q0.3 3.7 0.6 7.5c1.3 17.2 1.2 34.6-0.3 51.8-0.4 4.2 2.7 7.9 6.9 8.3q0.6 0.1 1.3 0zm-24.7-156.3q1.3-0.1 2.4-0.6c3.9-1.6 5.7-6.1 4.1-10-8.1-19-17.9-37.5-29.3-54.8-2.4-3.5-7.1-4.4-10.6-2.1-3.5 2.3-4.5 7-2.2 10.5 10.9 16.5 20.4 34.2 28 52.4 1.4 3.1 4.5 4.9 7.6 4.6zm-94.5-126.8c2-0.2 3.9-1.1 5.3-2.8 2.7-3.2 2.2-8-1-10.7-16-13.2-33.3-24.9-51.5-34.9-3.7-2.1-8.3-0.7-10.4 3-2 3.7-0.6 8.3 3 10.3 17.4 9.6 33.9 20.8 49.2 33.4 1.6 1.3 3.5 1.8 5.4 1.7zm-142.8-68.1c3.3-0.3 6.2-2.7 6.9-6.1 0.9-4.1-1.8-8.1-5.9-9-20.4-4.2-41.2-6.5-61.8-6.9-4.3-0.3-7.7 3.2-7.8 7.4-0.1 4.3 3.3 7.7 7.5 7.8 19.7 0.4 39.5 2.6 59 6.6q1.1 0.3 2.1 0.2z"/>
						<path id="&lt;Path&gt;" class="s2" d="m1777.5 995.1q1.1-0.1 2.2-0.5c9.2-3.7 18.7-6.9 28.2-9.7 4.1-1.2 6.4-5.4 5.2-9.4-1.2-4.1-5.4-6.4-9.4-5.2-10 2.9-19.9 6.3-29.6 10.1-3.9 1.5-5.8 5.9-4.2 9.9 1.2 3.1 4.4 5 7.6 4.8z"/>
					</g>
					<g id="&lt;Group&gt;">
						<path id="&lt;Compound Path&gt;" class="s2" d="m1776 1072.1c1.4-0.9 3.2-0.9 4.6 0.1l38.9 28.4c20.9-8.3 43.2-13.3 66.3-14.6l23.5-42c0.8-1.4 2.5-2.2 4.1-1.9l56.9 10.1c1.7 0.3 2.9 1.7 3.2 3.3l7.4 47.6c21.3 9.1 40.5 21.6 57.2 36.7l46.4-13.2c1.6-0.4 3.3 0.2 4.3 1.6l33 47.4c0.9 1.4 0.9 3.2-0.1 4.6l-28.4 38.9c8.3 20.9 13.4 43.2 14.6 66.3l42 23.5c1.5 0.8 2.3 2.5 2 4.2l-10.2 56.8c-0.3 1.7-1.6 3-3.3 3.2l-47.6 7.4c-9.1 21.3-21.6 40.5-36.6 57.2l13.1 46.4c0.4 1.6-0.2 3.3-1.6 4.3l-47.4 33c-1.3 0.9-3.2 0.9-4.6-0.1l-38.8-28.4c-20.9 8.3-43.3 13.4-66.4 14.6l-23.5 42c-0.8 1.5-2.5 2.3-4.1 2l-56.9-10.2c-1.6-0.3-2.9-1.6-3.2-3.3l-7.4-47.5c-21.3-9.2-40.5-21.7-57.2-36.7l-46.3 13.1c-1.7 0.5-3.4-0.2-4.4-1.6l-33-47.4c-0.9-1.3-0.9-3.2 0.1-4.5l28.4-38.9c-8.3-20.9-13.3-43.3-14.6-66.4l-42-23.5c-1.5-0.8-2.2-2.5-1.9-4.1l10.1-56.9c0.3-1.6 1.7-2.9 3.3-3.2l47.6-7.4c9.1-21.3 21.6-40.5 36.7-57.2l-13.2-46.3c-0.4-1.7 0.2-3.4 1.6-4.4z"/>
						<g id="&lt;Group&gt;">
							<path id="&lt;Compound Path&gt;" fill-rule="evenodd" class="s3" d="m1871.3 1353.9c-31.5-14.2-45.5-51.5-31.3-83 14.2-31.5 51.5-45.5 83-31.3 31.5 14.3 45.6 51.5 31.3 83-9.8 21.6-30.4 35-52.6 36.7-10.1 0.8-20.5-0.9-30.4-5.4zm-10.5-73.6c-9 20.1-0.1 43.7 19.9 52.8 20.1 9 43.7 0.1 52.8-19.9 9-20 0.1-43.7-19.9-52.7-20.1-9.1-43.7-0.2-52.8 19.8z"/>
						</g>
						<path id="&lt;Path&gt;" class="s3" d="m1909.3 1448.2c26.5-1.9 52.2-11 74.6-26.6 33.1-23 55.2-57.5 62.3-97.2 2.3-12.7 2.9-25.5 2-38.1-2-26.5-11-52.2-26.7-74.6-23-33.1-57.5-55.2-97.1-62.3-10.6-1.9-21.4-2.7-32.1-2.3l0.9 22.9c9-0.4 18.1 0.3 27.1 1.9 32.2 5.8 60.4 23.2 79.9 49.2q0.4 0.6 0.8 1.2 0.9 1.2 1.8 2.4c13.2 19.1 20.9 40.8 22.6 63.4 0.8 10.6 0.2 21.5-1.7 32.3-6 33.6-24.8 62.9-52.8 82.4-28.1 19.5-62.1 27-95.7 20.9-33.6-6-62.9-24.7-82.4-52.8-13.3-19-21-40.8-22.6-63.3-0.8-10.7-0.3-21.5 1.7-32.3 4-22.9 14.2-44.1 29.4-61.5l-17.3-15c-17.8 20.5-29.8 45.5-34.7 72.4-2.2 12.8-2.9 25.6-2 38.1 2 26.6 11.1 52.2 26.7 74.7 23 33 57.5 55.2 97.2 62.3 12.7 2.2 25.5 2.9 38.1 1.9z"/>
					</g>
				</g>
			</g>
			<g id="&lt;Group&gt;">
				<g id="&lt;Group&gt;">
					<path id="&lt;Path&gt;" class="s4" d="m2104.1 2682.6c198.2-43.7 48.9-337.8 41.8-349.1l355.2 124.7c0 0 31.8 170.9-189.3 328.3-55.9 39.8-112.5 56.9-165.8 60.4 3.6-68.6-16.7-123.5-41.9-164.3z"/>
					<path id="&lt;Path&gt;" class="s5" d="m1700.6 2696.1c58.2-71.1 154.9-44 154.9-44 115.1 35.8 194.7 42.4 248.6 30.5 25.2 40.8 45.5 95.7 41.9 164.3-115.5 7.6-215.7-49-261-79.8-16.3-11-38.6-7.4-50.1 8.6-11.8 16.2-21.8 36.7-14.2 53.2 14.9 32.4-21.4 54.4-27.9 43-6.5-11.5-10.8-89.1-10.8-89.1 0 0-56.2 101.6-78.3 140.8-22.1 39.1-69.4 19.7-69.4 19.7 0 0 8.1-176 66.3-247.2z"/>
					<path id="&lt;Path&gt;" class="s6" d="m2894.7 1935.7c0 0-249.4-196.5-903.6 82.9 0 0-70.7 78.1-46.6 173.2 24.1 95.1 364.8 624.2 363.1 861.5 0 0 246.2 168.6 589.4 41.8 0 0 154.5-616.3-2.3-1159.4z"/>
					<path id="&lt;Path&gt;" class="s7" d="m2365.5 1670l89.5 209.7c8.9 20.9 5.1 45.1-10.2 61.8-31 33.7-93.7 77.5-193 39.7-29.6-11.3-51-37.4-56.2-68.6l-38-229.9z"/>
					<path id="&lt;Path&gt;" class="s8" d="m2900.8 2722.8c72.2-124-172.5-519.9-172.5-519.9l166.4-267.2c0 0 577.2 689.3 281.1 1019.8-42.5 47.4-88.7 75.7-136.7 89.6-12-172.6-83.1-271.1-138.3-322.3z"/>
					<path id="&lt;Path&gt;" class="s9" d="m2906.8 2722.7c3.5 1 7.4-0.4 9.4-3.8 73.8-126.8-162.6-512-172.7-528.4-2.4-3.8-7.4-5-11.3-2.6-3.8 2.4-5 7.4-2.6 11.3 2.4 3.9 241.3 393.1 172.4 511.5-2.3 3.9-1 8.9 3 11.2q0.8 0.5 1.8 0.8z"/>
					<path id="&lt;Path&gt;" class="s10" d="m2320.5 2709.2c44.3 12.2 85.5 34.3 130 45.6 49.4 12.6 98.2 27.3 148 38.5 77.4 17.5 179.2 37.4 247.2-15.8 5.8-4.4 51.9-56.6 55.1-54.7 123.4 71.3 147.4 238 147.4 318.8-225 123.1-578.9-116.5-674.3-186.6-15.6-11.5-35.1-16.5-54.3-13.8-39 5.3-106.2 12.5-141.7 4.5-51.8-11.6-139.7 168-220.7 105.2 0 0 94.7-316.2 363.3-241.7z"/>
					<g id="&lt;Group&gt;">
						<path id="&lt;Path&gt;" class="s11" d="m2075.5 1373.6c0 0-56.6 183-51.5 275.2 5.2 92.2-7.9 153.8 100.1 160.5 107.9 6.6 191.3-56.1 229.5-152.8 0 0 60-149.1 36.6-204.8-23.4-55.7-314.7-78.1-314.7-78.1z"/>
						<path id="&lt;Path&gt;" class="s12" d="m2310.1 1594.9l-13.4 1.5c0 0 42.5-119.3-8.2-133.8-50.7-14.5-247.1-32.2-296.2-95.7-47.2-61.3-21.1-150.1 29.6-179.8 3.2-1.9 7.3-0.7 9.4 2.3l5.4 7.9c3.6 5.4 12 3.6 13.1-2.9 1-6 8.9-8.2 12.7-3.4 14.9 19 53 48.3 147 55 133.4 9.6 225.7 52.8 237.9 142.9 0.8 5.8 7.3 8.2 11.8 4.7 9-7 24.1-11.4 46.7 3.6 39.3 26.2 33.3 106.1-38.2 179.3-3.4 3.5-2.7 9.3 1.7 11.5 15.3 7.7 39 27.4-12.8 63-53 36.4-86.8 36.8-99.7 35-3.5-0.5-6.1-3.3-6.3-6.8l-4-80.6c-0.2-4.2-3.8-7.3-8-6.8z"/>
						<path id="&lt;Path&gt;" class="s13" d="m2308.6 1612.1c0 0 16.6-114.8 70.1-89.1 53.4 25.7-12 127.8-51.8 136.5z"/>
					</g>
					<path id="&lt;Path&gt;" class="s14" d="m2484.2 3056.8q-1.1 0.1-2.1 0l-908.2-14c-22.4-0.3-40.3-17.9-39.8-39.2 0.4-21.3 19-38.7 41.4-38l908.2 14.1c22.4 0.3 40.3 17.9 39.8 39.2-0.4 20.6-17.8 37.2-39.3 37.9z"/>
				</g>
				<g id="&lt;Group&gt;">
					<g id="&lt;Group&gt;">
						<g id="&lt;Group&gt;">
							<path id="&lt;Path&gt;" class="s15" d="m2130.7 1727.2c161.8 13.8 294.2-112.9 295.1-114.8v-28.6c-0.9 1.8-140.4 142.6-294.2 129.6z"/>
						</g>
						<path id="&lt;Path&gt;" class="s16" d="m2064.7 1720.2c0 10.8 7.8 19.5 17.4 19.5h46.3c9.6 0 17.3-8.7 17.3-19.5 0-10.7-7.7-19.5-17.3-19.5h-46.3c-9.6 0-17.4 8.8-17.4 19.5z"/>
					</g>
					<g id="&lt;Group&gt;">
						<path id="&lt;Path&gt;" class="s17" d="m2343.1 1440.1c0 0 37-197.1-191-198.3-3.1 0-3.6-4.5-0.6-5.2 62.5-14.4 243.7-35.7 246.5 200.9-34.8 12.5-54.9 2.6-54.9 2.6z"/>
						<path id="&lt;Path&gt;" class="s18" d="m2384.9 1416.1c88.9 18 78 130.5 78 130.5 6.4 81.6-17.4 122.1-47.9 141.4-20.9 13.2-47.2 14.4-69.2 3.3-22-11.1-36.6-33-38.4-57.6-1.6-22.2-3.5-43.3-5.2-50.8-4-18.2-6.3-184.9 82.7-166.8z"/>
					</g>
					<path id="&lt;Path&gt;" class="s19" d="m2376.7 1444.5c18.5-3.2 36.7 6.6 44.1 23.8 53.2 123.2-12.1 203.3-44.1 205-33.8 1.7-33.1-160.8-25.9-202.4 3-17.5 14.1-24.3 25.9-26.4z"/>
				</g>
			</g>
			<g id="&lt;Group&gt;">
				<path id="&lt;Path&gt;" class="s20" d="m3212.8 3087.9c1.5-11.2-0.6-22.8-5.7-31.6-5-8.9-12.6-14-20.6-14h-2702.7c-10.5 0-20.2 7.7-25.9 20.4-5.6 12.6-6.4 28.5-2 42.2l29.3 90.7c6.7 20.8 21.2 34.1 37.2 34.1h2645.6c14.9 0 27.6-15.1 30.5-36z"/>
				<path id="&lt;Compound Path&gt;" fill-rule="evenodd" class="s2" d="m482 3196.7l-29.3-90.8c-4.6-14.5-3.8-31.2 2.2-44.6 6.2-14 17-22.3 28.9-22.3h2702.7c9.3 0 17.8 5.7 23.5 15.6 5.5 9.5 7.7 21.8 6.1 33.7l-14.3 105.9c-3.1 22.5-17.3 38.9-33.8 38.9h-2645.6c-17.4 0-33.2-14.3-40.4-36.4zm2722.2-138.8c-4.4-7.8-10.9-12.2-17.7-12.2h-2702.7c-9.1 0-17.7 6.8-22.8 18.3-5.4 12-6.1 26.9-1.9 39.8l29.3 90.8c6.2 19.3 19.6 31.8 34 31.8h2645.6c13.1 0 24.6-13.9 27.1-33.1l14.4-105.9c1.4-10.5-0.5-21.3-5.3-29.5z"/>
			</g>
			<g id="&lt;Group&gt;">
				<path id="&lt;Path&gt;" class="s21" d="m1783.6 2010.9c15.3 124.8 84 631.6 103.6 776.4 2.8 20.4-13.4 38.3-33.9 37.7l-1165.1-33.3c-15.2-0.5-28.2-11.2-31.5-26.1l-181.2-816.2c-4.8-21.5 12.3-41.7 34.4-40.4l1242.6 72.8c16.1 0.9 29.2 13.2 31.1 29.1z"/>
				<g id="&lt;Group&gt;">
					<path id="&lt;Path&gt;" class="s22" d="m1315.3 2522.8l172.2 488.7-400.4 8.5-33.3-494.3c-1.6-23.2 17.7-42.5 40.9-40.9l186.9 12.4c15.4 1 28.6 11.1 33.7 25.6z"/>
					<path id="&lt;Compound Path&gt;" fill-rule="evenodd" class="s2" d="m1050.5 2525.9c-0.9-12 3.6-23.8 12.1-32.3 8.5-8.5 20.2-12.9 32.3-12.2l187 12.5c16.6 1.1 31 12 36.6 27.7l173.7 493.1-405 8.6-3.2 0.1zm261.7-2.1c-4.7-13.2-16.7-22.4-30.7-23.3l-187-12.4c-10.1-0.7-20 3-27.1 10.2-7.2 7.1-10.9 17-10.2 27.1l33.1 491.1 392.6-8.3z"/>
				</g>
				<g id="&lt;Group&gt;">
					<path id="&lt;Path&gt;" class="s23" d="m1649.8 3018.4c4.4 13.5-5.6 27.3-19.7 27.3h-627c-11.5 0-20.8-9.3-20.8-20.8v-26.9c0-11.8 9.8-21.3 21.6-20.8l627 26.9c8.7 0.4 16.2 6.1 18.9 14.3z"/>
					<path id="&lt;Compound Path&gt;" fill-rule="evenodd" class="s2" d="m978.9 3024.9v-26.9c0-6.6 2.7-12.8 7.5-17.4 4.7-4.6 11-7 17.7-6.7l627 26.9c10 0.4 18.8 7.1 21.9 16.6 2.4 7.4 1.2 15.3-3.4 21.7-4.6 6.3-11.7 10-19.5 10h-627c-13.4 0-24.2-10.9-24.2-24.2zm12.1-39.5c-3.5 3.3-5.4 7.8-5.4 12.6v26.9c0 9.6 7.8 17.5 17.5 17.5h627c5.6 0 10.8-2.7 14.1-7.3 3.3-4.5 4.2-10.2 2.4-15.6-2.2-6.9-8.6-11.7-15.8-12l-627-26.9q-0.4 0-0.8 0c-4.5 0-8.7 1.7-12 4.8z"/>
				</g>
				<path id="&lt;Path&gt;" class="s2" d="m1801.2 2526.5l8.3-1-57.3-451.4c-3.5-28-26.5-49.6-54.7-51.3l-1073.8-64.8-0.5 8.3 1073.8 64.8c24.2 1.5 43.9 20 47 44z"/>
				<path id="&lt;Path&gt;" class="s2" d="m1829.9 2752.8l8.3-1-12.4-97.7-8.3 1z"/>
			</g>
			<g id="&lt;Group&gt;">
				<path id="&lt;Path&gt;" class="s24" d="m1429.4 812v251.3c0 29.9-23.5 54.5-53.3 55.9l-314.3 14.7c-31.9 1.5-58.5-23.9-58.5-55.8v-266.1c0-30.9 25-55.9 55.9-55.9h314.3c30.9 0 55.9 25 55.9 55.9z"/>
				<g id="&lt;Group&gt;">
					<g id="&lt;Group&gt;">
						<g id="&lt;Group&gt;">
							<g id="&lt;Group&gt;">
								<g id="&lt;Group&gt;">
									<g id="&lt;Group&gt;">
										<path id="&lt;Compound Path&gt;" fill-rule="evenodd" class="s0" d="m1309.4 879.6l12.3-45.3 35.8-19.5 4.8 8.7-32.1 17.3-38.1 140-1.2 4.1h-155.8c-15.2 0-29.1-7.4-37.4-20.2l-7-9.2c-7.5-11.6-12.4-25-12.4-38.9v-37zm-219.9 37c0 12 3.7 23.6 10.2 33.6l6.2 10.4c6.4 9.8 17.4 16.8 29.1 16.8h148.2l8.1-29.9 15.3-56.6h-217.1z"/>
									</g>
									<g id="&lt;Group&gt;">
										<path id="&lt;Path&gt;" class="s0" d="m1099.3 1035.7c0 2.8 2.2 5.7 5 5.7h182.8c2.7 0 5.6-4.4 5.6-7.1v-86.2c0-1-0.6-0.8-1.1-1.5l-8.4 30.8h-1.8v52.7h-177.1c-2.8 0-5 2.9-5 5.6z"/>
									</g>
								</g>
								<g id="&lt;Group&gt;">
									<path id="&lt;Path&gt;" class="s0" d="m1200.7 884.6v93.9h-6.6v-93.9z"/>
									<g id="&lt;Group&gt;">
										<path id="&lt;Path&gt;" class="s0" d="m1259.7 884.6v93.9h-6.7v-93.9z"/>
										<path id="&lt;Path&gt;" class="s0" d="m1143.2 884.6v93.9h-6.7v-93.9z"/>
									</g>
								</g>
								<g id="&lt;Group&gt;">
									<path id="&lt;Path&gt;" class="s0" d="m1304.2 912.2v6h-217v-6z"/>
									<path id="&lt;Path&gt;" class="s0" d="m1294.7 944.9v6h-202.1v-6z"/>
								</g>
							</g>
							<path id="&lt;Compound Path&gt;" fill-rule="evenodd" class="s0" d="m1263.6 1047.8c12 0 21.6 9.6 21.6 21.6 0 11.9-9.6 21.5-21.6 21.5-11.9 0-21.5-9.6-21.5-21.5 0-12 9.6-21.6 21.5-21.6zm-13 21.6c0 7.1 5.9 13 13 13 7.2 0 13.1-5.9 13.1-13 0-7.2-5.9-13.1-13.1-13.1-7.1 0-13 5.9-13 13.1z"/>
							<path id="&lt;Compound Path&gt;" fill-rule="evenodd" class="s0" d="m1129.7 1047.8c11.9 0 21.6 9.6 21.6 21.6 0 11.9-9.7 21.5-21.6 21.5-11.9 0-21.5-9.6-21.5-21.5 0-12 9.6-21.6 21.5-21.6zm-13 21.6c0 7.1 5.8 13 13 13 7.2 0 13-5.9 13-13 0-7.2-5.8-13.1-13-13.1-7.2 0-13 5.9-13 13.1z"/>
						</g>
						<path id="&lt;Path&gt;" class="s0" d="m1335.3 823.5c0 5.6 4.5 10.1 10.1 10.1h33.7c5.6 0 10.1-4.5 10.1-10.1 0-5.6-4.5-10.2-10.1-10.2h-33.7c-5.6 0-10.1 4.6-10.1 10.2z"/>
					</g>
				</g>
			</g>
			<g id="&lt;Group&gt;">
				<path id="&lt;Path&gt;" class="s25" d="m2110.7 521.4v269.6c0 32-25.1 58.4-57.1 59.9l-337.2 15.9c-34.2 1.6-62.8-25.7-62.8-59.9v-285.5c0-33.1 26.9-60 60-60h337.1c33.2 0 60 26.9 60 60z"/>
				<g id="&lt;Group&gt;">
					<path id="&lt;Compound Path&gt;" fill-rule="evenodd" class="s0" d="m1733.9 754.5v-169.9c0-17.4 14.1-31.5 31.6-31.5h232.3c17.4 0 31.6 14.1 31.6 31.5v169.9c0 17.5-14.2 31.6-31.6 31.6h-232.3c-17.5 0-31.6-14.1-31.6-31.6zm31.6-180.6c-6 0-10.8 4.8-10.8 10.7v169.9c0 6 4.8 10.8 10.8 10.8h232.3c5.9 0 10.8-4.8 10.8-10.8v-169.9c0-5.9-4.9-10.7-10.8-10.7z"/>
					<path id="&lt;Path&gt;" class="s0" d="m1881.4 673.3c2.1 0 4.2-0.6 6-1.9l130.2-92.3c4.7-3.3 5.8-9.8 2.5-14.5-3.3-4.7-9.8-5.8-14.5-2.5l-124.2 88.1-122.5-87.1c-4.7-3.3-11.2-2.2-14.5 2.5-3.4 4.7-2.3 11.2 2.4 14.5l128.6 91.3c1.8 1.3 3.9 1.9 6 1.9z"/>
					<path id="&lt;Path&gt;" class="s0" d="m2010 778.9l3-20.6-1.4 10.3 8.7-5.7c-2.4-3.9-49.3-86-80.3-140.2-2.9-5-9.2-6.8-14.2-3.9-5 2.8-6.7 9.2-3.9 14.2 0 0 20.1 35.2 40.2 70.3 10.1 17.6 20.2 35.2 27.8 48.4 15.1 26.4 15.1 26.4 20.1 27.2z"/>
					<path id="&lt;Path&gt;" class="s0" d="m1753.6 778.9c5.1-0.8 5.1-0.8 20.2-27.2 7.5-13.2 17.6-30.8 27.7-48.4 20.1-35.1 40.2-70.3 40.2-70.3 2.8-5 1.1-11.4-3.9-14.2-5-2.9-11.3-1.1-14.2 3.9-30.9 54.2-77.9 136.3-80.3 140.2l8.7 5.7z"/>
				</g>
			</g>
			<g id="&lt;Group&gt;">
				<path id="&lt;Path&gt;" class="s26" d="m1039.1 1358.1v237.1c0 28.2-22.1 51.4-50.2 52.7l-296.6 14c-30.1 1.4-55.2-22.6-55.2-52.7v-251.1c0-29.1 23.6-52.8 52.7-52.8h296.6c29.1 0 52.7 23.7 52.7 52.8z"/>
				<path id="&lt;Compound Path&gt;" fill-rule="evenodd" class="s0" d="m939.9 1631.4l-5.7-6.2q-0.6-0.7-1.2-1.3l-85.4-101.6c-0.9-1.1-0.8-2.8 0.3-3.7 1.1-1 2.8-0.8 3.7 0.3l85.5 101.6q0.5 0.6 1 1.1l5.7 6.3c8.7 9.4 21.1 12.7 27.1 7.2l8.6-7.9c2.8-2.5 4-6.7 3.2-11.8-0.8-5.4-3.7-11-8.1-15.8l-5.7-6.2q-0.5-0.6-1.1-1.2l-106.9-106.9c-1-1.1-1-2.7 0-3.7 1-1.1 2.7-1.1 3.7 0l107 106.9q0.6 0.6 1.2 1.3l5.7 6.2c5.1 5.6 8.5 12.2 9.4 18.6 1.1 6.9-0.7 12.7-4.8 16.5l-8.6 7.9c-3 2.7-6.9 4-11.2 4-7.7 0-16.5-4-23.4-11.6zm2.5-14.7c-3.8-4.2-6.5-9.1-7.5-13.8-1.1-5.2 0-9.6 3-12.4 3-2.8 7.5-3.5 12.6-2 4.6 1.4 9.3 4.5 13.2 8.8 8.5 9.2 10.5 20.8 4.5 26.2-2 1.9-4.6 2.8-7.5 2.8-5.8 0-12.6-3.4-18.3-9.6zm-0.9-22.3c-2.2 1.9-1.9 5.5-1.5 7.4 0.8 3.8 3.1 7.8 6.3 11.4 6.9 7.4 15.2 9.4 18.4 6.5 3.5-3.3 1.3-12.1-4.9-18.9-3.3-3.5-7.1-6.1-10.8-7.2-1-0.3-2.2-0.6-3.6-0.6-1.4 0-2.8 0.3-3.9 1.4zm-131.3-116.6l-27.9-33.2c-25.8 14.6-56.2 9.9-76.3-12-13.2-14.4-19.6-33.6-17.6-52.7 0.4-4.4 3.4-8 7.6-9.4 4.3-1.4 8.9-0.3 11.9 3.1l33.2 36.2c1.8 1.9 4.5 3 7.1 2.7l17.9-1.5c3.9-0.3 7.1-3.3 7.8-7.1l3-17.7c0.5-2.6-0.3-5.4-2.1-7.3l-33.2-36.2c-3.1-3.3-3.8-8-2.1-12.2 1.8-4.1 5.7-6.7 10.1-6.8 19.2-0.4 37.7 7.7 50.9 22.1 20.1 21.9 22.2 52.6 5.4 77.1l36.8 36.7c1 1.1 1 2.7 0 3.8-1 1-2.7 1-3.7 0l-40-40 1.4-1.8c16.6-22.6 15.1-51.7-3.7-72.2-12.2-13.3-29.4-20.7-47-20.4-2.4 0.1-4.4 1.4-5.3 3.6-0.8 1.8-0.9 4.4 1.1 6.5l33.2 36.2c2.9 3.2 4.2 7.6 3.4 11.8l-3 17.7c-1.1 6.2-6.3 10.9-12.5 11.4l-17.9 1.6c-4.3 0.3-8.6-1.3-11.4-4.5l-33.2-36.2c-2-2.1-4.6-2.2-6.4-1.6-2.3 0.7-3.8 2.6-4.1 4.9-1.8 17.6 4.1 35.3 16.3 48.6 18.8 20.6 47.6 24.5 71.6 9.9l1.9-1.1 30.8 36.6c1 1.1 0.8 2.8-0.3 3.7-0.5 0.4-1.1 0.6-1.7 0.6-0.7 0-1.5-0.3-2-0.9z"/>
				<g id="&lt;Group&gt;">
					<path id="&lt;Compound Path&gt;" fill-rule="evenodd" class="s0" d="m716 1638.4l-9.2-8.1c-5-4.3-8-10.5-8.3-17.1-0.4-6.7 1.9-13.1 6.5-18l106.9-114.8c4.6-4.9 12.3-5.3 17.4-0.9l19.6 17.1c5.1 4.4 5.7 12.1 1.4 17.3l-99.2 121.5c-4.3 5.2-10.3 8.4-16.9 8.9q-1.1 0.1-2.1 0.1c-5.9 0-11.6-2.1-16.1-6zm108.7-153.6c-2.3-1.9-5.6-1.8-7.6 0.4l-107 114.8c-3.2 3.5-4.9 8-4.6 12.8 0.2 4.8 2.3 9.1 5.9 12.3l9.2 8c3.6 3.1 8.2 4.6 13 4.2 4.7-0.4 9-2.6 12-6.3l99.3-121.5c1.9-2.3 1.6-5.7-0.7-7.6l-19.5-17.1z"/>
				</g>
				<path id="&lt;Compound Path&gt;" fill-rule="evenodd" class="s0" d="m826.7 1485.7l88.8-99.7c-0.5-1.7-0.2-3.5 0.6-4.9l16.8-27.7q0.6-1.1 1.7-1.9l20.9-14.4c2.6-1.8 6.2-1.4 8.8 0.9l6.5 5.6c2.6 2.3 3.4 5.9 2 8.6l-11.4 22.7q-0.6 1.2-1.7 2l-25.8 19.8c-1.1 0.8-2.3 1.3-3.7 1.3l-86.1 100.8zm102.8-93.1c0.5 0.1 0.9 0.1 1.1-0.1l25.8-19.8q0.2-0.1 0.2-0.2l11.5-22.7c0.2-0.5 0-1.5-0.9-2.3l-6.4-5.6c-0.9-0.7-1.9-0.8-2.4-0.5l-20.9 14.4q-0.1 0.1-0.2 0.2l-16.7 27.7c-0.2 0.4-0.2 1 0.2 1.5l0.9 1.7-87.3 98 8.8 6.6 84.8-99.2z"/>
			</g>
			<g id="&lt;Group&gt;">
				<path id="&lt;Path&gt;" class="s27" d="m2354.2 692.2v283.6c0 33.7 26.4 61.4 60.1 63l354.6 16.7c35.9 1.7 66-27 66-63v-300.3c0-34.8-28.2-63-63.1-63h-354.6c-34.8 0-63 28.2-63 63z"/>
				<g id="&lt;Group&gt;">
					<g id="&lt;Group&gt;">
						<g id="&lt;Group&gt;">
							<g id="&lt;Group&gt;">
								<path id="&lt;Compound Path&gt;" fill-rule="evenodd" class="s0" d="m2588.3 792.1c1.2-6.2 2.7-12.4 4.3-18.4 1.7-6.1 3.6-12.1 6-18 2.3-5.8 5.1-11.6 8.7-16.8 1.8-2.6 3.8-5 6.3-7.1 1.2-1 2.6-1.8 4-2.5 1.5-0.6 3.1-1 4.7-1.1 1.6 0 3.2 0.3 4.7 0.9 1.5 0.5 2.8 1.4 4.1 2.4 2.5 2 4.5 4.6 6.2 7.2 1.7 2.7 3.2 5.5 4.5 8.4 1.3 2.8 2.5 5.8 3.5 8.7 2.1 6 3.8 12.1 5.3 18.2 1.4 6.1 2.6 12.3 3.6 18.6 2.1 12.4 3.5 24.9 4.4 37.5q0.7 9.4 1.1 18.9c0.2 6.3 0.4 12.6 0.3 18.9 0 12.6-0.6 25.2-1.6 37.8-1 12.5-2.6 25-4.8 37.5-1.1 6.2-2.4 12.3-4 18.4-1.6 6.2-3.4 12.2-5.6 18.1-2.2 5.9-4.8 11.7-8.4 17-1.8 2.7-3.8 5.2-6.3 7.2-1.3 1-2.7 1.9-4.2 2.5-1.5 0.6-3.1 0.9-4.8 0.8-1.6 0-3.2-0.4-4.7-1.1-1.5-0.7-2.8-1.6-4.1-2.6-2.4-2.1-4.4-4.6-6.2-7.3-3.4-5.3-6-11.1-8.2-17-2.2-6-4-12-5.5-18.1-1.6-6.1-2.9-12.3-4-18.5-4.4-24.9-6.2-50.1-6.2-75.3 0.1-25.2 2-50.5 6.9-75.2zm-3.6 112.8c0.9 12.5 2.3 25 4.4 37.4 1.1 6.2 2.4 12.3 3.8 18.4 1.5 6.1 3.3 12.1 5.4 18 2.1 5.9 4.6 11.7 8 16.9 1.7 2.6 3.6 5.1 5.9 7.1 1.2 1 2.5 1.9 3.8 2.5 1.4 0.6 2.9 1 4.4 1.1 1.5 0 3-0.3 4.4-0.9 1.3-0.6 2.6-1.4 3.8-2.3 2.4-2 4.4-4.4 6.1-7 3.4-5.2 5.9-11 8.1-16.8 2.2-5.9 3.9-11.9 5.4-18 1.5-6.1 2.8-12.2 3.9-18.4 2.1-12.4 3.5-24.9 4.5-37.4 0.9-12.5 1.3-25.1 1.3-37.6 0-12.6-0.3-25.1-1.1-37.7-0.7-12.5-2-25-3.9-37.4-1-6.2-2.1-12.4-3.5-18.5-1.4-6.1-3-12.2-5-18.1-1-3-2.1-5.9-3.4-8.8-1.3-2.9-2.7-5.6-4.3-8.3-1.7-2.6-3.6-5.1-6-7.1-1.2-1-2.5-1.8-3.9-2.4-1.4-0.6-3-0.9-4.5-0.8-1.5 0-3 0.4-4.4 1.1-1.4 0.6-2.7 1.5-3.9 2.4-2.4 2-4.4 4.5-6.1 7-3.5 5.2-6.2 10.9-8.4 16.8-2.3 5.8-4.1 11.8-5.8 17.9-1.6 6-2.9 12.2-4.1 18.3-2.3 12.4-3.8 24.9-4.8 37.4-1.1 12.5-1.6 25-1.5 37.6 0 12.5 0.4 25.1 1.4 37.6z"/>
							</g>
							<g id="&lt;Group&gt;">
								<path id="&lt;Compound Path&gt;" fill-rule="evenodd" class="s0" d="m2620.3 1010.9q-3.1 0-6.2-1.4c-1.7-0.8-3.3-1.8-4.9-3.2-2.4-2.1-4.6-4.6-6.9-8-3.2-4.9-5.9-10.5-8.6-17.8-2.1-5.6-4-11.7-5.7-18.5-1.5-5.9-2.8-12.1-4-18.8-4.2-23.3-6.2-48.2-6.3-75.9 0.1-27.6 2.4-52.4 7-75.9 1.3-6.7 2.8-12.8 4.4-18.7 1.9-6.8 3.9-12.8 6.1-18.4 2.9-7.2 5.8-12.7 9.1-17.5 2.3-3.3 4.5-5.8 7-7.8 1.6-1.3 3.2-2.3 4.9-3 1.9-0.9 4-1.4 5.9-1.5 2.1 0 4.3 0.4 6.2 1.1q2.6 1.1 5.1 3.1c2.5 2 4.7 4.5 6.9 8 1.7 2.6 3.3 5.5 4.8 8.8 1.3 2.8 2.5 5.7 3.7 9.1 1.9 5.6 3.7 11.7 5.3 18.6 1.4 5.9 2.6 12 3.8 18.8 1.9 11.8 3.4 24.2 4.4 37.8 0.4 6.2 0.8 12.6 1 19 0.2 5.7 0.4 12.3 0.4 19.1-0.1 12.9-0.6 25.7-1.6 38.1-1.2 13.5-2.8 25.9-4.9 37.8-1.2 6.7-2.6 12.9-4.1 18.8-1.7 6.8-3.6 12.9-5.7 18.4-2.8 7.4-5.5 13-8.8 17.8-2.3 3.4-4.5 5.9-7 8-1.7 1.3-3.4 2.3-5.1 3-1.9 0.7-3.9 1.1-5.8 1.1q-0.2 0-0.4 0zm2.1-278.5q-1.4 0.1-3 0.8-1.5 0.7-3.1 2c-1.8 1.5-3.6 3.5-5.4 6.2-2.9 4.3-5.4 9.4-8 16-2.1 5.3-3.9 11-5.6 17.5-1.5 5.8-2.9 11.7-4.1 18.1-2.1 11.6-3.7 23.7-4.8 37-1 12.1-1.5 24.6-1.5 37.3 0 12.7 0.5 25.3 1.4 37.3 1 13.4 2.5 25.6 4.4 37.1 1.2 6.5 2.4 12.5 3.8 18.1 1.6 6.6 3.3 12.4 5.2 17.7 2.5 6.7 4.9 11.8 7.7 16.1 1.7 2.8 3.4 4.7 5.2 6.3q1.5 1.3 3 1.9 1.5 0.7 2.9 0.8c0.9 0 1.9-0.2 2.9-0.6q1.4-0.6 2.9-1.8c1.8-1.5 3.5-3.4 5.3-6.1 2.8-4.3 5.3-9.4 7.8-16.1 1.9-5.3 3.6-11 5.3-17.6 1.4-5.7 2.6-11.7 3.8-18.1 2-11.7 3.4-23.8 4.4-37.1 0.9-12.1 1.4-24.6 1.3-37.3 0.1-13.8-0.3-26-1-37.4-0.8-13.4-2.1-25.5-3.9-37.2-1-6.5-2.2-12.5-3.4-18.2-1.5-6.6-3.1-12.4-5-17.8-1-3.1-2.1-5.9-3.2-8.4-1.4-3-2.7-5.5-4.1-7.8-1.8-2.8-3.5-4.7-5.3-6.2q-1.5-1.3-2.9-1.9c-0.9-0.4-1.9-0.6-2.8-0.6q-0.1 0-0.2 0z"/>
							</g>
						</g>
						<g id="&lt;Group&gt;">
							<g id="&lt;Group&gt;">
								<path id="&lt;Compound Path&gt;" fill-rule="evenodd" class="s0" d="m2524.6 819.2c4.4-15.6 11.1-30.6 20.1-44.1 4.5-6.7 9.6-13.1 15.3-18.8 5.7-5.7 12-10.9 18.8-15.2 6.9-4.3 14.3-7.7 22-10.1 7.7-2.3 15.8-3.5 23.9-3.6 8.1 0 16.1 1.3 23.9 3.6 7.7 2.3 15.1 5.8 22 10.1 6.8 4.3 13.1 9.4 18.8 15.1 5.8 5.8 10.9 12.1 15.4 18.8 9 13.5 15.7 28.5 20.1 44.2 2.2 7.8 3.8 15.7 4.9 23.8 1.1 8 1.6 16.2 1.7 24.3-0.1 8.1-0.6 16.2-1.7 24.3-1.1 8-2.7 16-4.9 23.8-4.4 15.7-11 30.7-20.1 44.2-4.5 6.7-9.6 13-15.3 18.8-5.7 5.7-12 10.9-18.9 15.2-6.8 4.3-14.2 7.8-22 10.1-7.7 2.3-15.8 3.5-23.9 3.5-8.1 0-16.2-1.2-23.9-3.5-7.8-2.4-15.2-5.8-22-10.1-6.9-4.4-13.2-9.5-18.9-15.3-5.7-5.7-10.8-12.1-15.3-18.8-9-13.5-15.6-28.5-20-44.1-4.4-15.7-6.4-31.9-6.5-48.1 0.1-16.2 2.2-32.5 6.5-48.1zm1.9 95.7c4.2 15.4 10.6 30.3 19.4 43.8 4.4 6.6 9.4 13 15 18.7 5.6 5.7 11.7 10.9 18.5 15.2 6.8 4.3 14 7.7 21.7 10.1 7.6 2.3 15.6 3.5 23.6 3.6 8-0.1 16-1.3 23.6-3.7 7.6-2.3 14.9-5.7 21.7-10 6.7-4.3 12.9-9.5 18.5-15.2 5.5-5.8 10.5-12.1 14.9-18.8 8.8-13.4 15.2-28.3 19.4-43.8 2.1-7.7 3.6-15.6 4.7-23.5 1-8 1.5-16 1.5-24 0-8-0.5-16-1.5-24-1.1-7.9-2.6-15.8-4.7-23.6-4.2-15.4-10.6-30.3-19.3-43.8-4.4-6.7-9.4-13-15-18.7-5.6-5.8-11.7-11-18.5-15.3-6.7-4.3-14-7.7-21.7-10.1-7.6-2.3-15.6-3.6-23.6-3.6-8 0-16 1.3-23.6 3.6-7.7 2.3-15 5.8-21.8 10.1-6.7 4.3-12.9 9.5-18.5 15.2-5.6 5.8-10.6 12.1-14.9 18.8-8.8 13.4-15.2 28.3-19.5 43.8-4.2 15.5-6.2 31.5-6.2 47.6 0 16 2 32.1 6.3 47.6z"/>
							</g>
							<g id="&lt;Group&gt;">
								<path id="&lt;Compound Path&gt;" fill-rule="evenodd" class="s0" d="m2599.7 1007.2c-7.9-2.4-15.6-5.9-22.9-10.5-6.8-4.4-13.4-9.7-19.5-15.8-5.7-5.7-11-12.2-15.7-19.3-9-13.4-15.9-28.6-20.5-45.2-4.4-15.6-6.6-32.1-6.7-49.1 0.1-17 2.4-33.5 6.7-49.1 4.7-16.6 11.6-31.8 20.5-45.1 4.8-7.1 10.1-13.6 15.8-19.4 6.1-6.1 12.6-11.4 19.5-15.7 7.3-4.6 14.9-8.1 22.9-10.5 8.1-2.5 16.5-3.7 24.9-3.7 8.4 0 16.8 1.2 24.9 3.7 8 2.4 15.7 5.9 22.9 10.4 6.9 4.4 13.5 9.7 19.5 15.8 5.8 5.7 11.1 12.2 15.8 19.3 9 13.4 15.9 28.6 20.6 45.2 2.2 7.9 3.9 16 5 24.3 1.1 8.1 1.7 16.4 1.7 24.8 0 8.3-0.6 16.7-1.7 24.8-1.1 8.2-2.7 16.4-4.9 24.3-4.7 16.6-11.7 31.8-20.6 45.2-4.8 7.1-10.1 13.6-15.8 19.4-6.1 6.1-12.6 11.4-19.5 15.7-7.3 4.6-15 8.1-22.9 10.5-8.2 2.5-16.6 3.7-25 3.7-8.4 0-16.8-1.3-25-3.7zm2.4-271.9c-7.1 2.2-14.1 5.4-20.8 9.7-6.2 3.9-12.2 8.9-17.9 14.7-5.2 5.4-10.1 11.5-14.5 18.2-8.2 12.6-14.6 27-18.9 42.8-4.1 14.8-6.1 30.4-6.1 46.6 0 16.1 2.1 31.8 6.1 46.6 4.3 15.8 10.7 30.2 19 42.7 4.3 6.7 9.2 12.8 14.5 18.2 5.7 5.8 11.7 10.8 17.8 14.7 6.7 4.2 13.7 7.4 20.9 9.6 7.3 2.3 14.9 3.5 22.5 3.5 7.6 0 15.2-1.2 22.5-3.5 7.2-2.2 14.2-5.4 20.8-9.6 6.2-4 12.2-8.9 17.8-14.7 5.3-5.4 10.2-11.6 14.5-18.2 8.3-12.6 14.6-27 19-42.7 1.9-7.3 3.5-15.1 4.5-23.1 1-7.7 1.5-15.6 1.6-23.5 0-7.9-0.6-15.8-1.6-23.5-1-8-2.5-15.8-4.5-23.1-4.3-15.8-10.7-30.2-18.9-42.7-4.4-6.7-9.2-12.9-14.5-18.3-5.6-5.8-11.6-10.7-17.8-14.7-6.7-4.2-13.7-7.5-20.8-9.7-7.4-2.2-15-3.4-22.6-3.4-7.6 0-15.2 1.2-22.6 3.4z"/>
							</g>
						</g>
						<g id="&lt;Group&gt;">
							<g id="&lt;Group&gt;">
								<path id="&lt;Path&gt;" class="s0" d="m2749.1 811.9l-32-0.3-32-0.1-64.1-0.1-64 0.1-32 0.2-32 0.3q-0.1 0-0.1 0c0 0 0 0.1 0.1 0.1l32 0.3 32 0.2 64 0.1 64.1-0.1 32-0.2 32-0.2c0.1 0 0.1-0.1 0.1-0.1q0-0.2-0.1-0.2z"/>
							</g>
							<g id="&lt;Group&gt;">
								<path id="&lt;Path&gt;" class="s0" d="m2621 816.4l96.1-0.3 33.6-0.3 2.2-2.2v-1.6l-0.1-3.6-3.7-0.2-64-0.4-64.1-0.1-96 0.3-35.7 0.3-0.1 7.4 3.8 0.1 64 0.5z"/>
							</g>
						</g>
						<g id="&lt;Group&gt;">
							<g id="&lt;Group&gt;">
								<path id="&lt;Path&gt;" class="s0" d="m2712 758.1c-7.6-0.1-15.2-0.2-22.8-0.3l-22.7-0.1c-7.6-0.1-15.2-0.1-22.7-0.1l-22.8-0.1-45.4 0.2-22.8 0.1c-7.5 0.1-15.1 0.2-22.7 0.3 0 0-0.1 0.1-0.1 0.1q0 0.1 0.1 0.1c7.6 0.1 15.2 0.2 22.7 0.3l22.8 0.1 45.4 0.2 22.8-0.1c7.5 0 15.1 0 22.7 0l22.7-0.2c7.6-0.1 15.2-0.1 22.8-0.2 0 0 0.1-0.1 0.1-0.2 0-0.1-0.1-0.1-0.1-0.1z"/>
							</g>
							<g id="&lt;Group&gt;">
								<path id="&lt;Path&gt;" class="s0" d="m2621 762.6l28.7-0.1q8.4 0 16.8-0.1l30.3-0.2q7.6-0.1 15.2-0.2h3.6l0.2-7.5-3.8-0.1q-7.3-0.1-14.7-0.2l-30.8-0.2q-8-0.1-16-0.1h-29.5l-76.5 0.4q-7.2 0-14.5 0.1l-3.7 0.1 0.2 7.4 3.6 0.1c5 0.1 10.1 0.1 15.1 0.2l30.3 0.2z"/>
							</g>
						</g>
						<g id="&lt;Group&gt;">
							<g id="&lt;Group&gt;">
								<path id="&lt;Path&gt;" class="s0" d="m2760.2 865.7l-34.8-0.2-34.8-0.2-69.6-0.1-69.6 0.1-34.8 0.2-34.8 0.3q0 0-0.1 0.1c0 0 0.1 0.1 0.1 0.1l34.8 0.3 34.8 0.1 69.6 0.1 69.6-0.1 34.8-0.1 34.8-0.3c0.1 0 0.2 0 0.2-0.1 0-0.1-0.1-0.2-0.2-0.2z"/>
							</g>
							<g id="&lt;Group&gt;">
								<path id="&lt;Path&gt;" class="s0" d="m2621 870.2l104.4-0.2 38.5-0.3 0.1-7.5-3.7-0.1-69.7-0.4-69.6-0.2-104.4 0.3-36.3 0.3-2.2 2.3 0.1 5.2h3.6l69.6 0.5z"/>
							</g>
						</g>
						<g id="&lt;Group&gt;">
							<g id="&lt;Group&gt;">
								<path id="&lt;Path&gt;" class="s0" d="m2749.1 919.6l-32-0.3-32-0.1-64.1-0.2-64 0.2-32 0.1-32 0.3c-0.1 0-0.1 0.1-0.1 0.1q0 0.1 0.1 0.1l32 0.3 32 0.1 64 0.2 64.1-0.1 32-0.2 32-0.2c0.1 0 0.1-0.1 0.1-0.2 0-0.1 0-0.1-0.1-0.1z"/>
							</g>
							<g id="&lt;Group&gt;">
								<path id="&lt;Path&gt;" class="s0" d="m2621 924l96.1-0.2 33.6-0.3 2.2-2.2v-1.7l-0.1-3.6-3.7-0.1-64-0.4-64.1-0.1-96 0.3-35.7 0.3-0.1 7.4 3.8 0.1 64 0.4z"/>
							</g>
						</g>
						<g id="&lt;Group&gt;">
							<g id="&lt;Group&gt;">
								<path id="&lt;Path&gt;" class="s0" d="m2525.5 974h181.9c0.2 0 0.5-0.2 0.5-0.5 0-0.2-0.3-0.4-0.5-0.4h-181.9c-0.2 0-0.5 0.2-0.5 0.4 0 0.3 0.3 0.5 0.5 0.5z"/>
							</g>
							<g id="&lt;Group&gt;">
								<path id="&lt;Path&gt;" class="s0" d="m2525.5 977.7h181.9c2.3 0 4.1-1.9 4.1-4.2 0-2.2-1.8-4.1-4.1-4.1h-181.9c-2.3 0-4.1 1.9-4.1 4.1 0 2.3 1.8 4.2 4.1 4.2z"/>
							</g>
						</g>
					</g>
					<g id="&lt;Group&gt;">
						<path id="&lt;Compound Path&gt;" fill-rule="evenodd" class="s0" d="m2621 718c82.7 0 149.6 66.1 149.6 147.9 0 81.8-66.9 147.9-149.6 147.9-82.6 0-149.5-66.1-149.5-147.9 0-81.8 66.9-147.9 149.5-147.9zm-136.4 147.9c0 74.5 61 134.8 136.4 134.8 75.5 0 136.5-60.3 136.5-134.8 0-74.5-61-134.8-136.5-134.8-75.4 0-136.4 60.3-136.4 134.8z"/>
					</g>
				</g>
				<g id="&lt;Group&gt;">
					<path id="&lt;Compound Path&gt;" class="s0" d="m2465.7 746.2h-42.9v-11.1l14.2-20.2q5.9-8.3 8.1-12.3 2.2-4 3.2-7.7 1.1-3.7 1.1-7.7 0-4.6-2.1-6.9-2.1-2.3-5.3-2.3-2.9 0-5.5 1.6-2.5 1.5-6.1 5.5l-8.3-8.8q5.7-6.5 10.7-8.9 4.9-2.4 10.6-2.4 9.7 0 15.2 5.7 5.4 5.7 5.4 15.8 0 4.6-1 8.7-0.9 4.1-2.9 8.3-2 4.1-5.1 8.6-3 4.4-15.5 20.4v0.5h26.2z"/>
					<path id="&lt;Compound Path&gt;" fill-rule="evenodd" class="s0" d="m2520.9 729.4h-8.1v16.8h-14v-16.8h-26.1v-12.1l24.2-51.2h15.9v51h8.1zm-22.1-12.3v-16.9l0.3-7.5 0.4-7.1h-0.5q-1.9 6-4.1 10.8l-9.7 20.7z"/>
				</g>
			</g>
		</g>
	</g>
</svg>